<svg version="1.1" id="Layer_1" xmlns="http://www.w3.org/2000/svg" xmlns:xlink="http://www.w3.org/1999/xlink" x="0px" y="0px"
	 width="100%" viewBox="0 0 512 512" enable-background="new 0 0 512 512" xml:space="preserve">
<path fill="#000000" opacity="1.000000" stroke="none" 
	d="
M292.000000,513.000000 
	C194.690292,513.000000 97.880577,513.000000 1.035435,513.000000 
	C1.035435,342.398590 1.035435,171.797195 1.035435,1.097890 
	C171.559723,1.097890 342.119537,1.097890 512.839661,1.097890 
	C512.839661,171.666550 512.839661,342.333252 512.839661,513.000000 
	C439.463837,513.000000 365.981903,513.000000 292.000000,513.000000 
M462.004486,406.936615 
	C462.053619,393.960083 462.102753,380.983521 462.929596,368.048981 
	C471.249359,371.372894 479.399902,371.290771 486.672485,365.715881 
	C494.515869,359.703430 497.592316,351.661194 495.423523,341.762634 
	C495.168488,340.598633 495.916870,339.029602 496.591064,337.877014 
	C501.281097,329.858765 502.200562,319.017303 495.951721,314.127991 
	C488.921051,308.626923 485.777649,301.463989 482.021240,294.231476 
	C481.501343,293.230469 480.770721,292.285980 479.961121,291.496338 
	C470.032440,281.812225 454.335968,279.071289 441.023315,290.037567 
	C440.961700,276.696960 440.900085,263.356354 440.976746,249.152512 
	C440.998474,247.122177 441.020203,245.091843 441.943268,243.015289 
	C444.502563,243.015289 447.061890,243.015289 449.687134,243.015289 
	C449.687134,238.975113 449.687134,235.755783 449.687134,231.932220 
	C446.635010,231.932220 443.872345,231.932220 441.011292,231.007996 
	C441.010468,186.695511 441.009613,142.383011 441.914459,98.020210 
	C444.492706,98.020210 447.070984,98.020210 449.627930,98.020210 
	C449.627930,90.919701 449.627930,84.685318 449.627930,78.375221 
	C320.988739,78.375221 192.722000,78.375221 64.318108,78.375221 
	C64.318108,84.991226 64.318108,91.230728 64.318108,98.070541 
	C67.416237,98.070541 70.203743,98.070541 73.003174,98.993973 
	C72.965996,143.305710 72.928818,187.617462 71.999901,231.981247 
	C69.446075,231.981247 66.892242,231.981247 64.335007,231.981247 
	C64.335007,236.067337 64.335007,239.288422 64.335007,243.061462 
	C67.426254,243.061462 70.192146,243.061462 72.991173,243.927032 
	C73.047958,245.956604 73.104752,247.986191 73.020309,250.941650 
	C72.965088,264.283661 72.909859,277.625641 72.240631,290.707855 
	C66.198311,284.941254 58.947659,282.009918 50.713085,283.268829 
	C37.934937,285.222443 29.863752,292.696136 26.974890,305.500183 
	C26.768051,306.416931 26.152411,307.518738 25.390106,307.991455 
	C13.077224,315.626831 10.582265,325.738403 17.830450,338.435181 
	C18.428686,339.483124 18.469919,341.106537 18.211237,342.345947 
	C15.873581,353.546234 22.620258,365.353577 33.575596,369.001892 
	C39.792675,371.072266 45.855465,370.140442 51.965622,368.940674 
	C51.971218,381.910797 51.976814,394.880951 51.066830,407.969574 
	C42.303196,407.752563 33.729527,408.725464 25.511993,411.993774 
	C20.203447,414.105042 15.420645,416.737488 14.032109,423.933075 
	C14.032109,427.857391 14.032109,431.781738 14.032109,435.696564 
	C176.339645,435.696564 337.969757,435.696564 499.834625,435.696564 
	C499.834625,431.268463 499.834625,427.141052 499.945862,422.297577 
	C497.889740,416.843079 493.848297,413.237823 488.357483,412.100403 
	C479.657440,410.298218 470.805328,409.229889 462.004486,406.936615 
z"/>
<path fill="#994129" opacity="1.000000" stroke="none" 
	d="
M72.991249,98.070541 
	C70.203743,98.070541 67.416237,98.070541 64.318108,98.070541 
	C64.318108,91.230728 64.318108,84.991226 64.318108,78.375221 
	C192.722000,78.375221 320.988739,78.375221 449.627930,78.375221 
	C449.627930,84.685318 449.627930,90.919701 449.627930,98.020210 
	C447.070984,98.020210 444.492706,98.020210 440.995361,98.021065 
	C435.077515,98.072937 430.078796,98.123955 424.669617,98.126053 
	C423.159760,98.106773 422.060364,98.136414 420.497009,98.117783 
	C418.702179,98.044426 417.371338,97.997398 416.040497,97.997360 
	C310.035278,97.993942 204.030075,97.993423 98.024864,98.001335 
	C96.362869,98.001457 94.700867,98.108772 92.628326,98.119240 
	C91.118469,98.106598 90.019157,98.140778 88.460724,98.121262 
	C82.998154,98.068558 77.994705,98.069550 72.991249,98.070541 
z"/>
<path fill="#7A838F" opacity="1.000000" stroke="none" 
	d="
M499.834625,423.013611 
	C499.834625,427.141052 499.834625,431.268463 499.834625,435.696564 
	C337.969757,435.696564 176.339645,435.696564 14.032109,435.696564 
	C14.032109,431.781738 14.032109,427.857391 14.556575,423.470703 
	C31.398319,422.966797 47.715595,422.925262 64.494598,422.952240 
	C66.287331,423.050293 67.618324,423.105591 68.949326,423.105652 
	C194.294678,423.109619 319.640015,423.110199 444.985382,423.099945 
	C446.645935,423.099823 448.306519,422.958923 450.436523,422.920197 
	C467.215515,422.975677 483.525085,422.994629 499.834625,423.013611 
z"/>
<path fill="#8DAE1F" opacity="1.000000" stroke="none" 
	d="
M51.848301,368.006683 
	C45.855465,370.140442 39.792675,371.072266 33.575596,369.001892 
	C22.620258,365.353577 15.873581,353.546234 18.211237,342.345947 
	C18.469919,341.106537 18.428686,339.483124 17.830450,338.435181 
	C10.582265,325.738403 13.077224,315.626831 25.390106,307.991455 
	C26.152411,307.518738 26.768051,306.416931 26.974890,305.500183 
	C29.863752,292.696136 37.934937,285.222443 50.713085,283.268829 
	C58.947659,282.009918 66.198311,284.941254 72.607590,291.302979 
	C73.084831,309.194427 73.195107,326.490692 72.828499,343.841003 
	C71.206749,343.922241 70.042702,344.096466 68.920456,343.950134 
	C64.889801,343.424469 63.915268,345.383331 63.954079,349.073822 
	C63.990005,352.489594 64.738022,354.419403 68.602943,354.046783 
	C70.207253,353.892151 71.859833,354.238159 73.409317,354.733154 
	C73.495964,357.072144 73.663750,359.034393 73.785561,361.394989 
	C73.466820,364.222565 73.194038,366.651855 72.573502,369.038391 
	C70.538177,368.331665 68.850616,367.667694 67.022583,366.769165 
	C66.600327,366.309387 66.318558,366.084137 65.964119,365.533966 
	C64.265701,363.252899 62.639950,361.296722 60.966183,359.282776 
	C57.663078,362.443146 54.755688,365.224915 51.848301,368.006683 
z"/>
<path fill="#8EAE1F" opacity="1.000000" stroke="none" 
	d="
M441.146088,290.969299 
	C454.335968,279.071289 470.032440,281.812225 479.961121,291.496338 
	C480.770721,292.285980 481.501343,293.230469 482.021240,294.231476 
	C485.777649,301.463989 488.921051,308.626923 495.951721,314.127991 
	C502.200562,319.017303 501.281097,329.858765 496.591064,337.877014 
	C495.916870,339.029602 495.168488,340.598633 495.423523,341.762634 
	C497.592316,351.661194 494.515869,359.703430 486.672485,365.715881 
	C479.399902,371.290771 471.249359,371.372894 462.355225,367.740448 
	C458.987305,364.863708 456.193726,362.295502 452.894958,359.262817 
	C451.245941,361.460876 449.604126,363.649292 447.726440,365.980591 
	C447.272797,366.417023 447.055115,366.710632 446.488098,367.017426 
	C444.451691,367.714813 442.764618,368.398956 440.992493,368.678070 
	C440.661011,365.847626 440.414551,363.422211 440.323181,360.663940 
	C440.488861,358.339844 440.499481,356.348633 440.987762,354.290588 
	C443.262268,354.137238 445.169678,354.389526 446.819092,353.851227 
	C448.025238,353.457642 449.577820,352.156738 449.795074,351.032104 
	C450.920227,345.207916 449.898743,344.100037 444.122375,343.964935 
	C442.978912,343.938202 441.836975,343.847748 440.706238,343.332031 
	C440.860809,325.574677 441.003448,308.271973 441.146088,290.969299 
z"/>
<path fill="#D9A460" opacity="1.000000" stroke="none" 
	d="
M425.080078,98.174973 
	C430.078796,98.123955 435.077515,98.072937 440.542480,98.046219 
	C441.009613,142.383011 441.010468,186.695511 440.749084,231.762894 
	C435.354218,232.613785 430.221527,232.709778 425.074646,232.352371 
	C425.066986,187.324295 425.073547,142.749634 425.080078,98.174973 
z"/>
<path fill="#D9A460" opacity="1.000000" stroke="none" 
	d="
M72.997208,98.532257 
	C77.994705,98.069550 82.998154,98.068558 88.473969,98.576241 
	C88.934639,143.658524 88.922951,188.232147 88.453178,232.859070 
	C82.960609,232.584656 77.926125,232.256927 72.891640,231.929199 
	C72.928818,187.617462 72.965996,143.305710 72.997208,98.532257 
z"/>
<path fill="#D8A560" opacity="1.000000" stroke="none" 
	d="
M441.084717,290.503418 
	C441.003448,308.271973 440.860809,325.574677 440.273438,343.384460 
	C435.240753,343.879059 430.652771,343.866547 426.039001,343.396851 
	C425.724609,311.973755 425.436005,281.007904 425.604431,250.033997 
	C430.987122,250.022568 435.912811,250.019150 440.838470,250.015717 
	C440.900085,263.356354 440.961700,276.696960 441.084717,290.503418 
z"/>
<path fill="#D8A560" opacity="1.000000" stroke="none" 
	d="
M73.305382,343.786987 
	C73.195107,326.490692 73.084831,309.194427 72.914597,291.432892 
	C72.909859,277.625641 72.965088,264.283661 73.546959,250.474030 
	C78.999954,250.018280 83.926292,250.030151 88.890579,250.505341 
	C88.597389,281.930450 88.266251,312.892242 87.474915,343.890381 
	C82.444931,343.880127 77.875153,343.833557 73.305382,343.786987 
z"/>
<path fill="#99422A" opacity="1.000000" stroke="none" 
	d="
M425.088867,232.805786 
	C430.221527,232.709778 435.354218,232.613785 440.798279,232.225006 
	C443.872345,231.932220 446.635010,231.932220 449.687134,231.932220 
	C449.687134,235.755783 449.687134,238.975113 449.687134,243.015289 
	C447.061890,243.015289 444.502563,243.015289 441.025604,242.993240 
	C435.088959,243.009323 430.069977,243.047455 424.644165,243.045212 
	C423.152374,243.021622 422.067444,243.038391 420.515869,243.021881 
	C401.707397,243.015656 383.365509,243.042725 364.633606,243.040207 
	C363.204224,242.963196 362.164886,242.915787 361.078827,242.423889 
	C361.095612,238.976074 361.159149,235.972763 361.660065,232.982391 
	C364.481781,232.947311 366.866150,232.899277 369.702606,232.880127 
	C387.086945,232.871048 404.019165,232.833038 421.363281,232.848602 
	C422.879730,232.870026 423.984283,232.837906 425.088867,232.805786 
z"/>
<path fill="#99422A" opacity="1.000000" stroke="none" 
	d="
M72.445770,231.955231 
	C77.926125,232.256927 82.960609,232.584656 88.865616,232.908615 
	C90.840324,232.868240 91.944527,232.831635 93.511887,232.844879 
	C110.900032,232.880188 127.825012,232.865677 145.209564,232.893219 
	C147.785568,232.957352 149.901993,232.979416 152.024567,233.451965 
	C151.978531,236.891235 151.926361,239.880020 151.512573,242.898178 
	C150.426086,242.974991 149.701218,243.022461 148.510590,243.029816 
	C129.702377,243.011551 111.359901,243.033371 92.611687,243.024628 
	C91.120255,243.024551 90.034554,243.055038 88.486908,243.039215 
	C83.002655,243.015747 77.980354,243.038605 72.958046,243.061462 
	C70.192146,243.061462 67.426254,243.061462 64.335007,243.061462 
	C64.335007,239.288422 64.335007,236.067337 64.335007,231.981247 
	C66.892242,231.981247 69.446075,231.981247 72.445770,231.955231 
z"/>
<path fill="#8EAD1F" opacity="1.000000" stroke="none" 
	d="
M64.032875,422.883698 
	C47.715595,422.925262 31.398319,422.966797 14.623074,423.010620 
	C15.420645,416.737488 20.203447,414.105042 25.511993,411.993774 
	C33.729527,408.725464 42.303196,407.752563 51.888065,408.001160 
	C54.854565,407.811249 57.373486,408.220673 59.058720,407.222504 
	C61.676941,405.671753 63.727776,403.163055 66.257843,400.941345 
	C66.718140,400.546997 66.939697,400.271698 67.510880,399.983398 
	C69.549698,399.284424 71.238899,398.598419 73.014481,398.368256 
	C73.363220,402.897125 73.625587,406.970154 73.847931,411.232910 
	C73.807907,411.422668 73.730614,411.803375 73.293167,411.827026 
	C63.353508,412.204346 64.086319,410.283295 64.043579,420.922852 
	C64.040947,421.576477 64.036484,422.230072 64.032875,422.883698 
z"/>
<path fill="#8EAD1F" opacity="1.000000" stroke="none" 
	d="
M499.890259,422.655579 
	C483.525085,422.994629 467.215515,422.975677 450.432526,422.469940 
	C449.947601,412.427460 449.947601,412.427460 440.613403,411.185425 
	C440.806305,406.471771 440.938904,402.191895 441.419647,397.957642 
	C443.458069,398.667633 445.148376,399.332001 446.980591,400.221497 
	C447.409943,400.646606 447.697357,400.846558 448.165466,401.325012 
	C449.749542,402.756012 451.404694,403.709259 452.505920,405.100861 
	C455.091309,408.368103 458.094238,409.530731 462.017578,407.851074 
	C470.805328,409.229889 479.657440,410.298218 488.357483,412.100403 
	C493.848297,413.237823 497.889740,416.843079 499.890259,422.655579 
z"/>
<path fill="#AB5033" opacity="1.000000" stroke="none" 
	d="
M66.019104,401.060425 
	C63.727776,403.163055 61.676941,405.671753 59.058720,407.222504 
	C57.373486,408.220673 54.854565,407.811249 52.345856,407.941895 
	C51.976814,394.880951 51.971218,381.910797 51.906960,368.473694 
	C54.755688,365.224915 57.663078,362.443146 60.966183,359.282776 
	C62.639950,361.296722 64.265701,363.252899 65.954742,366.014038 
	C66.018379,378.232788 66.018738,389.646576 66.019104,401.060425 
z"/>
<path fill="#AB5033" opacity="1.000000" stroke="none" 
	d="
M462.011047,407.393860 
	C458.094238,409.530731 455.091309,408.368103 452.505920,405.100861 
	C451.404694,403.709259 449.749542,402.756012 448.169617,400.852783 
	C447.982819,388.680542 447.972565,377.259125 447.962341,365.837708 
	C449.604126,363.649292 451.245941,361.460876 452.894958,359.262817 
	C456.193726,362.295502 458.987305,364.863708 461.966370,367.719452 
	C462.102753,380.983521 462.053619,393.960083 462.011047,407.393860 
z"/>
<path fill="#C99859" opacity="1.000000" stroke="none" 
	d="
M425.050995,243.085587 
	C430.069977,243.047455 435.088959,243.009323 440.574951,243.016357 
	C441.020203,245.091843 440.998474,247.122177 440.907593,249.584106 
	C435.912811,250.019150 430.987122,250.022568 425.562012,250.021759 
	C425.062531,250.017517 424.980164,249.997116 424.993805,249.562454 
	C425.021973,247.113724 425.036499,245.099655 425.050995,243.085587 
z"/>
<path fill="#C99859" opacity="1.000000" stroke="none" 
	d="
M72.974609,243.494247 
	C77.980354,243.038605 83.002655,243.015747 88.495560,243.466278 
	C88.984039,245.958832 89.001938,247.977966 88.977814,250.007538 
	C88.935799,250.017944 88.852638,250.042023 88.852638,250.042023 
	C83.926292,250.030151 78.999954,250.018280 73.617577,250.011078 
	C73.104752,247.986191 73.047958,245.956604 72.974609,243.494247 
z"/>
<path fill="#CD9456" opacity="1.000000" stroke="none" 
	d="
M144.749985,232.851166 
	C127.825012,232.865677 110.900032,232.880188 93.501968,232.393402 
	C93.032211,187.316772 93.035545,142.741409 93.038872,98.166061 
	C94.700867,98.108772 96.362869,98.001457 98.024864,98.001335 
	C204.030075,97.993423 310.035278,97.993942 416.040497,97.997360 
	C417.371338,97.997398 418.702179,98.044426 420.505341,98.572678 
	C420.968903,143.648911 420.960144,188.221970 420.951385,232.795044 
	C404.019165,232.833038 387.086945,232.871048 369.672729,232.425781 
	C369.178558,227.331680 368.892365,222.700653 369.230316,218.115601 
	C369.577209,213.408661 367.945587,211.277496 363.128418,211.670685 
	C363.121979,210.985886 363.132172,210.594330 363.597992,210.160828 
	C377.714844,210.091293 391.377838,209.931427 405.036255,210.113159 
	C409.386414,210.171036 411.234253,209.137238 411.195618,204.309204 
	C410.986328,178.153641 411.015686,151.995026 411.176117,125.838753 
	C411.202698,121.505409 409.889496,119.971840 405.477142,120.053894 
	C392.985962,120.286179 380.482758,120.337296 367.994598,120.033951 
	C363.038574,119.913567 361.841827,121.732597 361.875702,126.400917 
	C362.048737,150.223831 361.916840,174.048981 361.529205,198.072327 
	C356.457306,198.508530 351.747894,198.745728 346.978607,198.518814 
	C346.890961,174.074142 346.772003,150.093033 346.914978,126.113495 
	C346.942383,121.513939 345.353363,120.003830 340.821533,120.080322 
	C327.835419,120.299492 314.842346,120.245338 301.854065,120.105682 
	C298.154907,120.065910 296.930634,121.440758 296.961243,125.095238 
	C297.114838,143.412628 297.071075,161.731674 296.682526,180.136902 
	C291.450592,180.172714 286.632751,180.121765 281.842285,179.596359 
	C281.884491,161.313599 281.819244,143.504578 281.975006,125.697510 
	C282.010498,121.643402 280.644592,120.040062 276.496063,120.092293 
	C263.516235,120.255707 250.531815,120.252518 237.551880,120.093117 
	C233.452820,120.042770 231.984451,121.544487 232.024261,125.649582 
	C232.200211,143.788849 232.152008,161.930298 231.804688,180.241150 
	C226.584045,180.290924 221.743683,180.170517 216.926208,179.577362 
	C216.959457,161.111771 216.900650,143.118393 217.038300,125.126534 
	C217.066025,121.502464 215.906601,120.064621 212.173920,120.104935 
	C199.013962,120.247078 185.850296,120.260414 172.690765,120.098717 
	C168.624222,120.048752 167.080521,121.458893 167.106308,125.605072 
	C167.256454,149.761108 167.219498,173.918320 166.895447,198.325134 
	C161.744339,198.662521 156.943558,198.749924 152.116058,198.382233 
	C152.070374,173.938873 151.972717,149.950150 152.107208,125.962730 
	C152.130569,121.794464 151.157684,119.956245 146.568970,120.047333 
	C133.746811,120.301872 120.915154,120.233635 108.089844,120.078178 
	C104.238991,120.031502 102.821686,121.318138 102.840454,125.270103 
	C102.966217,151.756836 102.977623,178.244873 102.831902,204.731400 
	C102.808670,208.954758 104.361061,210.141251 108.384384,210.105408 
	C122.540855,209.979324 136.699936,210.146439 150.871826,210.495911 
	C150.875381,211.181015 150.865158,211.572479 150.432861,211.969360 
	C146.233444,211.538620 144.614105,213.039261 144.785049,217.004654 
	C145.012299,222.276535 144.783081,227.568069 144.749985,232.851166 
z"/>
<path fill="#BE8950" opacity="1.000000" stroke="none" 
	d="
M92.628326,98.119240 
	C93.035545,142.741409 93.032211,187.316772 93.038803,232.343582 
	C91.944527,232.831635 90.840324,232.868240 89.323700,232.855286 
	C88.922951,188.232147 88.934639,143.658524 88.933090,98.629944 
	C90.019157,98.140778 91.118469,98.106598 92.628326,98.119240 
z"/>
<path fill="#BE8950" opacity="1.000000" stroke="none" 
	d="
M421.363281,232.848602 
	C420.960144,188.221970 420.968903,143.648911 420.969330,98.620941 
	C422.060364,98.136414 423.159760,98.106773 424.669617,98.126053 
	C425.073547,142.749634 425.066986,187.324295 425.074646,232.352356 
	C423.984283,232.837906 422.879730,232.870026 421.363281,232.848602 
z"/>
<path fill="#994129" opacity="1.000000" stroke="none" 
	d="
M440.553131,411.619171 
	C449.947601,412.427460 449.947601,412.427460 449.963074,422.433441 
	C448.306519,422.958923 446.645935,423.099823 444.985382,423.099945 
	C319.640015,423.110199 194.294678,423.109619 68.949326,423.105652 
	C67.618324,423.105591 66.287331,423.050293 64.494598,422.952240 
	C64.036484,422.230072 64.040947,421.576477 64.043579,420.922852 
	C64.086319,410.283295 63.353508,412.204346 73.786789,411.888794 
	C86.714447,411.938080 98.711227,411.995300 110.707588,411.948212 
	C124.533401,411.893982 138.358856,411.747650 152.630005,411.730042 
	C161.692383,411.847931 170.309235,411.877136 179.387543,411.938660 
	C182.939896,411.929260 186.030807,411.887543 189.580017,411.882629 
	C198.650330,411.893677 207.262344,411.867920 216.297089,411.876831 
	C217.849625,411.892944 218.979446,411.874359 220.502838,411.891113 
	C222.216690,411.907776 223.536972,411.889160 225.334641,411.883179 
	C246.922272,411.887421 268.032501,411.878967 289.539429,411.875610 
	C291.254303,411.872406 292.572479,411.864136 294.313568,411.887665 
	C295.866150,411.893677 296.995789,411.867859 298.583130,411.879700 
	C307.653259,411.893646 316.265656,411.869995 325.342163,411.883026 
	C328.601746,411.861572 331.397217,411.803406 334.642853,411.804718 
	C343.686859,411.825684 352.280701,411.787231 361.349518,411.788269 
	C373.444489,411.871735 385.064636,411.969696 396.684509,411.945831 
	C411.119324,411.916199 425.553925,411.785767 440.130554,411.684631 
	C440.272491,411.670380 440.553131,411.619171 440.553131,411.619171 
z"/>
<path fill="#994129" opacity="1.000000" stroke="none" 
	d="
M72.828499,343.841003 
	C77.875153,343.833557 82.444931,343.880127 87.901199,343.930603 
	C90.209259,343.872772 91.630829,343.811066 93.513275,343.811584 
	C112.333145,343.955139 130.692123,344.036499 149.039551,344.560669 
	C149.036484,347.960632 149.044998,350.917786 148.582642,353.909393 
	C129.755066,354.014496 111.398376,354.085083 92.628952,354.113800 
	C91.111801,354.110962 90.007378,354.149994 88.445129,354.137573 
	C83.155029,354.176208 78.322739,354.266357 73.490456,354.356476 
	C71.859833,354.238159 70.207253,353.892151 68.602943,354.046783 
	C64.738022,354.419403 63.990005,352.489594 63.954079,349.073822 
	C63.915268,345.383331 64.889801,343.424469 68.920456,343.950134 
	C70.042702,344.096466 71.206749,343.922241 72.828499,343.841003 
z"/>
<path fill="#DAA561" opacity="1.000000" stroke="none" 
	d="
M73.887955,411.043182 
	C73.625587,406.970154 73.363220,402.897125 73.045242,397.905518 
	C72.966835,387.684967 72.944054,378.383057 72.921265,369.081116 
	C73.194038,366.651855 73.466820,364.222565 74.266068,361.395264 
	C75.608894,360.996277 76.425255,360.994995 77.241608,360.994568 
	C86.386406,360.989777 86.386406,360.989777 88.966843,369.504883 
	C88.661659,382.256226 88.302811,394.542084 88.068115,406.830322 
	C88.011971,409.770264 86.822792,411.087555 83.868904,411.017456 
	C80.543999,410.938507 77.215111,411.027344 73.887955,411.043182 
z"/>
<path fill="#000000" opacity="1.000000" stroke="none" 
	d="
M72.573502,369.038391 
	C72.944054,378.383057 72.966835,387.684967 72.958862,397.449646 
	C71.238899,398.598419 69.549698,399.284424 67.447685,399.517365 
	C67.077606,388.377441 67.120338,377.690552 67.163063,367.003693 
	C68.850616,367.667694 70.538177,368.331665 72.573502,369.038391 
z"/>
<path fill="#C59A55" opacity="1.000000" stroke="none" 
	d="
M88.958702,369.040253 
	C86.386406,360.989777 86.386406,360.989777 77.241608,360.994568 
	C76.425255,360.994995 75.608894,360.996277 74.312035,360.996948 
	C73.663750,359.034393 73.495964,357.072144 73.409317,354.733154 
	C78.322739,354.266357 83.155029,354.176208 88.460213,354.557953 
	C88.959053,357.015991 88.985001,359.002106 89.010017,361.434204 
	C88.992294,364.266846 88.975502,366.653534 88.958702,369.040253 
z"/>
<path fill="#BF4040" opacity="1.000000" stroke="none" 
	d="
M67.022583,366.769165 
	C67.120338,377.690552 67.077606,388.377441 67.098068,399.530334 
	C66.939697,400.271698 66.718140,400.546997 66.257835,400.941345 
	C66.018738,389.646576 66.018379,378.232788 66.027405,366.338928 
	C66.318558,366.084137 66.600327,366.309387 67.022583,366.769165 
z"/>
<path fill="#994129" opacity="1.000000" stroke="none" 
	d="
M426.064819,343.854034 
	C430.652771,343.866547 435.240753,343.879059 440.261536,343.839111 
	C441.836975,343.847748 442.978912,343.938202 444.122375,343.964935 
	C449.898743,344.100037 450.920227,345.207916 449.795074,351.032104 
	C449.577820,352.156738 448.025238,353.457642 446.819092,353.851227 
	C445.169678,354.389526 443.262268,354.137238 440.582764,354.183319 
	C435.144836,354.139587 430.589539,354.136322 425.563629,354.104553 
	C405.043518,354.007812 384.994019,353.939575 364.957947,353.430359 
	C364.963867,350.032196 364.956390,347.075012 365.419159,344.075928 
	C384.242126,343.939148 402.594818,343.844238 421.371155,343.803772 
	C423.218109,343.856812 424.641479,343.855438 426.064819,343.854034 
z"/>
<path fill="#DAA561" opacity="1.000000" stroke="none" 
	d="
M440.613403,411.185425 
	C440.553131,411.619171 440.272491,411.670380 439.759583,411.530060 
	C436.269257,411.259369 433.289001,410.981049 430.315216,411.038574 
	C427.084229,411.101074 425.968933,409.649445 425.916992,406.526886 
	C425.693634,393.096649 425.278290,379.669617 425.045837,366.239502 
	C425.015442,364.481964 425.638733,362.713135 426.426941,360.958496 
	C431.319122,360.977234 435.743591,360.987030 440.168091,360.996796 
	C440.414551,363.422211 440.661011,365.847626 440.959473,369.141174 
	C441.031494,379.310242 441.051514,388.611115 441.071503,397.912018 
	C440.938904,402.191895 440.806305,406.471771 440.613403,411.185425 
z"/>
<path fill="#000000" opacity="1.000000" stroke="none" 
	d="
M441.419647,397.957642 
	C441.051514,388.611115 441.031494,379.310242 441.044525,369.546204 
	C442.764618,368.398956 444.451691,367.714813 446.551819,367.483337 
	C446.922791,378.622833 446.880707,389.309570 446.838654,399.996338 
	C445.148376,399.332001 443.458069,398.667633 441.419647,397.957642 
z"/>
<path fill="#C59A55" opacity="1.000000" stroke="none" 
	d="
M440.323181,360.663940 
	C435.743591,360.987030 431.319122,360.977234 426.436371,360.532715 
	C425.996826,358.109650 426.015564,356.121338 426.034271,354.133057 
	C430.589539,354.136322 435.144836,354.139587 440.105103,354.250122 
	C440.499481,356.348633 440.488861,358.339844 440.323181,360.663940 
z"/>
<path fill="#BF4040" opacity="1.000000" stroke="none" 
	d="
M446.980591,400.221497 
	C446.880707,389.309570 446.922791,378.622833 446.901123,367.470154 
	C447.055115,366.710632 447.272797,366.417023 447.726410,365.980560 
	C447.972565,377.259125 447.982819,388.680542 447.988953,400.574249 
	C447.697357,400.846558 447.409943,400.646606 446.980591,400.221497 
z"/>
<path fill="#BF8C50" opacity="1.000000" stroke="none" 
	d="
M426.039001,343.396851 
	C424.641479,343.855438 423.218109,343.856812 421.380615,343.356018 
	C420.966339,311.916473 420.966156,280.979126 420.976349,250.029175 
	C420.986694,250.016602 421.007141,249.991272 421.404663,249.994720 
	C422.861542,249.997818 423.920837,249.997467 424.980164,249.997116 
	C424.980164,249.997116 425.062531,250.017517 425.104980,250.029770 
	C425.436005,281.007904 425.724609,311.973755 426.039001,343.396851 
z"/>
<path fill="#BF8C50" opacity="1.000000" stroke="none" 
	d="
M93.052399,343.749329 
	C91.630829,343.811066 90.209259,343.872772 88.361404,343.894257 
	C88.266251,312.892242 88.597389,281.930450 88.890579,250.505341 
	C88.852638,250.042023 88.935799,250.017944 89.374329,250.009064 
	C90.872810,249.997208 91.932777,249.994247 93.003014,250.003937 
	C93.013290,250.016586 93.034058,250.041748 93.026672,250.506012 
	C93.030327,281.896637 93.041367,312.822968 93.052399,343.749329 
z"/>
<path fill="#AB5133" opacity="1.000000" stroke="none" 
	d="
M145.209564,232.893219 
	C144.783081,227.568069 145.012299,222.276535 144.785049,217.004654 
	C144.614105,213.039261 146.233444,211.538620 150.914093,211.980377 
	C222.259933,211.978638 292.702515,211.971298 363.145081,211.963959 
	C367.945587,211.277496 369.577209,213.408661 369.230316,218.115601 
	C368.892365,222.700653 369.178558,227.331680 369.220642,232.396881 
	C366.866150,232.899277 364.481781,232.947311 361.172241,232.969788 
	C351.513641,232.975525 342.780212,233.006821 333.591766,233.018814 
	C330.411560,233.010361 327.686432,233.021194 324.496704,233.000732 
	C315.370361,232.992340 306.708588,233.015289 297.575500,233.019989 
	C270.053833,233.013885 243.003479,233.026047 215.489502,233.005966 
	C206.363647,232.993317 197.701416,233.012909 188.581299,233.014938 
	C185.052689,233.027573 181.981979,233.057755 178.450165,233.041351 
	C169.332184,232.996994 160.675308,232.999237 152.018433,233.001480 
	C149.901993,232.979416 147.785568,232.957352 145.209564,232.893219 
z"/>
<path fill="#BE8950" opacity="1.000000" stroke="none" 
	d="
M365.023651,243.069794 
	C383.365509,243.042725 401.707397,243.015656 420.520081,243.452271 
	C420.996307,245.941055 421.001709,247.966156 421.007141,249.991272 
	C421.007141,249.991272 420.986694,250.016602 420.511719,250.017609 
	C401.688538,250.009537 383.340332,250.000443 364.992920,249.557281 
	C365.003662,247.105392 365.013672,245.087601 365.023651,243.069794 
z"/>
<path fill="#DAA561" opacity="1.000000" stroke="none" 
	d="
M334.046814,233.038116 
	C342.780212,233.006821 351.513641,232.975525 360.734863,232.956833 
	C361.159149,235.972763 361.095612,238.976074 361.027893,242.798615 
	C359.678650,244.735611 358.333588,245.853394 356.635895,246.761108 
	C350.455017,246.423172 344.626770,246.295303 338.388947,246.160217 
	C334.985870,246.311722 333.875153,244.787994 333.989319,241.924271 
	C334.107269,238.966156 334.035553,236.000473 334.046814,233.038116 
z"/>
<path fill="#B07E4A" opacity="1.000000" stroke="none" 
	d="
M356.988556,246.971191 
	C358.333588,245.853394 359.678650,244.735611 361.074646,243.243103 
	C362.164886,242.915787 363.204224,242.963196 364.633606,243.040207 
	C365.013672,245.087601 365.003662,247.105392 364.996765,249.561401 
	C364.999817,249.999603 364.993286,249.993622 364.551392,249.994812 
	C361.760223,249.980682 359.410950,249.965378 357.055359,249.577942 
	C357.028870,248.460922 357.008728,247.716049 356.988556,246.971191 
z"/>
<path fill="#B07E4A" opacity="1.000000" stroke="none" 
	d="
M421.404663,249.994720 
	C421.001709,247.966156 420.996307,245.941055 420.986694,243.485565 
	C422.067444,243.038391 423.152374,243.021622 424.644165,243.045212 
	C425.036499,245.099655 425.021973,247.113724 424.993805,249.562454 
	C423.920837,249.997467 422.861542,249.997818 421.404663,249.994720 
z"/>
<path fill="#BE8950" opacity="1.000000" stroke="none" 
	d="
M93.017426,243.055176 
	C111.359901,243.033371 129.702377,243.011551 148.517471,243.460083 
	C148.996002,245.950745 149.001892,247.971054 148.538284,249.993454 
	C129.723862,250.010956 111.378960,250.026352 93.034058,250.041748 
	C93.034058,250.041748 93.013290,250.016586 93.006287,249.569061 
	C93.005333,247.099426 93.011375,245.077301 93.017426,243.055176 
z"/>
<path fill="#DAA561" opacity="1.000000" stroke="none" 
	d="
M152.024567,233.451965 
	C160.675308,232.999237 169.332184,232.996994 178.468781,233.496246 
	C178.958801,236.774124 178.904953,239.552658 178.997696,242.326294 
	C179.087784,245.020660 177.863571,246.268356 174.712524,246.120956 
	C168.487167,246.373337 162.749390,246.671417 156.639771,246.931641 
	C154.803360,245.552139 153.338776,244.210480 151.874191,242.868820 
	C151.926361,239.880020 151.978531,236.891235 152.024567,233.451965 
z"/>
<path fill="#B07E4A" opacity="1.000000" stroke="none" 
	d="
M151.512573,242.898178 
	C153.338776,244.210480 154.803360,245.552139 156.626587,247.304718 
	C156.970078,248.460800 156.954910,249.205933 156.501953,249.963776 
	C153.711700,249.982193 151.359222,249.987915 149.003479,249.996613 
	C149.000214,249.999588 149.007797,249.991348 149.007797,249.991348 
	C149.001892,247.971054 148.996002,245.950745 148.983215,243.500183 
	C149.701218,243.022461 150.426086,242.974991 151.512573,242.898178 
z"/>
<path fill="#B07E4A" opacity="1.000000" stroke="none" 
	d="
M92.611679,243.024612 
	C93.011375,245.077301 93.005333,247.099426 92.996017,249.556412 
	C91.932777,249.994247 90.872810,249.997208 89.416344,249.998657 
	C89.001938,247.977966 88.984039,245.958832 88.957504,243.512604 
	C90.034554,243.055038 91.120255,243.024551 92.611679,243.024612 
z"/>
<path fill="#BB8C4B" opacity="1.000000" stroke="none" 
	d="
M88.966843,369.504883 
	C88.975502,366.653534 88.992294,364.266846 89.407150,361.437927 
	C90.864182,360.994293 91.923164,360.992889 92.996048,361.002716 
	C93.009956,361.013977 93.037895,361.036407 93.027756,361.501190 
	C93.012856,376.403687 93.131348,390.843140 92.928032,405.278046 
	C92.867271,409.591888 94.271088,411.107269 98.649345,411.053894 
	C115.407974,410.849487 132.170334,410.951233 149.322510,410.952881 
	C150.496277,410.972046 151.278839,410.977081 152.101242,411.145233 
	C152.141083,411.308350 152.184464,411.641357 152.184464,411.641357 
	C138.358856,411.747650 124.533401,411.893982 110.707588,411.948212 
	C98.711227,411.995300 86.714447,411.938080 74.224236,411.865173 
	C73.730614,411.803375 73.807907,411.422668 73.847931,411.232910 
	C77.215111,411.027344 80.543999,410.938507 83.868904,411.017456 
	C86.822792,411.087555 88.011971,409.770264 88.068115,406.830322 
	C88.302811,394.542084 88.661659,382.256226 88.966843,369.504883 
z"/>
<path fill="#9B452D" opacity="1.000000" stroke="none" 
	d="
M363.128418,211.670685 
	C292.702515,211.971298 222.259933,211.978638 151.336151,211.974976 
	C150.865158,211.572479 150.875381,211.181015 150.898682,210.026001 
	C151.322083,205.787415 151.732437,202.312363 152.142792,198.837326 
	C156.943558,198.749924 161.744339,198.662521 167.278229,198.308929 
	C169.040192,198.016663 170.069016,197.990570 171.541962,198.106506 
	C183.521225,198.248520 195.056351,198.248520 207.018097,198.248520 
	C207.018097,192.299805 207.018097,186.722549 207.018097,181.132034 
	C209.347214,180.713257 211.259995,180.369339 213.546478,180.030106 
	C214.914581,180.039902 215.908951,180.044998 216.903336,180.050110 
	C221.743683,180.170517 226.584045,180.290924 232.176941,180.229309 
	C233.932205,180.035934 234.934937,180.024567 236.288162,180.239471 
	C243.399872,180.518585 250.162201,180.672363 256.921967,180.596466 
	C263.970062,180.517365 271.015686,180.216873 278.439484,180.013062 
	C279.816040,180.032242 280.815491,180.051529 281.814941,180.070816 
	C286.632751,180.121765 291.450592,180.172714 297.054474,180.129364 
	C298.836090,180.031799 299.831635,180.028534 301.174500,180.247208 
	C303.157043,180.610535 304.792267,180.751923 307.026428,180.945099 
	C307.026428,186.770645 307.026428,192.476471 307.026428,197.964813 
	C319.396362,197.964813 331.149170,197.964813 343.258240,197.991852 
	C344.755829,198.340240 345.897156,198.661575 347.038452,198.982910 
	C351.747894,198.745728 356.457306,198.508530 361.762665,198.425385 
	C362.619843,202.453888 362.881104,206.328339 363.142365,210.202789 
	C363.132172,210.594330 363.121979,210.985886 363.128418,211.670685 
M250.384750,191.085510 
	C246.094467,186.961456 247.176620,193.790939 244.938339,193.831268 
	C243.950897,192.298615 243.001221,190.824615 242.051559,189.350616 
	C241.564392,189.621109 241.077225,189.891602 240.590073,190.162094 
	C241.887558,193.215027 243.185043,196.267944 244.482529,199.320862 
	C246.900436,196.668808 247.856888,194.233688 249.040665,191.914612 
	C249.323654,191.360214 250.364288,191.192551 250.937805,191.764038 
	C250.937805,194.036514 250.937805,196.308990 250.937805,198.574890 
	C253.501556,198.574890 255.609512,198.574890 257.717468,198.574890 
	C257.749420,198.295563 257.781403,198.016251 257.813385,197.736923 
	C256.235168,197.267227 254.656982,196.797546 251.720810,195.923706 
	C254.449417,195.249878 255.702438,194.940445 258.041870,194.362717 
	C255.679993,193.403793 254.426010,192.894684 252.588089,192.148499 
	C254.751160,191.502930 256.124268,191.093124 257.497406,190.683319 
	C257.397247,190.238068 257.297119,189.792816 257.196991,189.347549 
	C255.150497,189.730682 253.104019,190.113815 250.384750,191.085510 
M284.241852,193.690430 
	C284.397705,195.456375 284.553589,197.222321 284.709473,198.988266 
	C285.219849,198.977921 285.730255,198.967590 286.240631,198.957260 
	C286.389130,197.585327 286.355652,196.159943 286.738495,194.856857 
	C287.105042,193.609146 287.904083,192.488464 288.513062,191.311951 
	C289.642242,192.226715 291.103424,192.938904 291.816528,194.107559 
	C292.705475,195.564407 292.977661,197.397568 293.793671,199.929092 
	C295.238708,195.820114 296.280792,192.856918 297.697388,188.828751 
	C295.740265,190.290573 294.670380,191.089691 293.600525,191.888794 
	C293.639893,191.451340 293.679291,191.013901 293.718658,190.576447 
	C289.886597,190.127502 286.054565,189.678574 280.951599,189.080734 
	C282.779724,191.218002 283.479004,192.035538 284.241852,193.690430 
M264.667694,197.959610 
	C265.307617,198.317917 265.947540,198.676208 266.578369,199.029419 
	C266.749054,196.310577 267.803772,193.369186 266.786194,191.665497 
	C265.843353,190.086960 262.684967,189.831757 259.629486,188.658813 
	C259.842041,193.082062 259.981415,195.981766 260.080994,198.053680 
	C261.949249,197.742966 263.067566,197.556976 264.667694,197.959610 
M228.286438,195.603394 
	C228.321793,195.440796 228.326523,195.261780 228.402084,195.120712 
	C228.463913,195.005325 228.686981,194.841110 228.708145,194.858383 
	C230.472946,196.298370 232.224991,197.753998 234.364044,199.528870 
	C234.364044,195.707520 234.364044,192.709503 234.364044,189.711487 
	C234.035629,189.692154 233.707214,189.672821 233.378799,189.653488 
	C233.075409,191.145187 232.772018,192.636871 232.453537,194.202820 
	C230.608948,192.576401 228.825821,191.004181 226.688171,189.119354 
	C226.688171,193.068192 226.688171,195.966553 226.688171,198.864929 
	C227.023056,198.888901 227.357956,198.912888 227.692841,198.936874 
	C227.882050,198.065033 228.071243,197.193176 228.286438,195.603394 
M272.243042,195.119614 
	C272.745056,195.533905 273.247070,195.948196 274.254852,196.779877 
	C272.094635,196.779877 270.718750,196.779877 268.622498,196.779877 
	C272.825226,199.682678 276.362701,199.286346 275.994629,196.575928 
	C275.757477,194.829514 273.648773,193.337250 272.364594,191.713058 
	C273.432495,191.534805 274.629059,191.335083 275.825623,191.135376 
	C275.723541,190.574081 275.621490,190.012787 275.519440,189.451492 
	C273.605347,189.858047 271.691284,190.264603 269.777191,190.671143 
	C270.369110,192.093933 270.961029,193.516739 272.243042,195.119614 
M215.941376,193.573303 
	C217.011887,195.362579 217.824615,197.435654 219.301651,198.777435 
	C219.777756,199.209976 222.920105,198.021072 223.241867,197.045761 
	C223.988342,194.783157 223.758606,192.198471 223.924606,189.744354 
	C223.246384,189.734024 222.568146,189.723694 221.889923,189.713364 
	C221.889923,191.299149 222.111649,192.929367 221.806244,194.453979 
	C221.624924,195.359039 220.612869,196.097687 219.974319,196.911148 
	C219.343689,196.092026 218.391357,195.355637 218.154587,194.435196 
	C217.756226,192.886627 217.812454,191.221100 217.677460,189.604782 
	C217.266418,189.622589 216.855392,189.640411 216.444351,189.658218 
	C216.276581,190.695328 216.108795,191.732437 215.941376,193.573303 
z"/>
<path fill="#AE573B" opacity="1.000000" stroke="none" 
	d="
M152.116058,198.382233 
	C151.732437,202.312363 151.322083,205.787415 150.884888,209.732376 
	C136.699936,210.146439 122.540855,209.979324 108.384384,210.105408 
	C104.361061,210.141251 102.808670,208.954758 102.831902,204.731400 
	C102.977623,178.244873 102.966217,151.756836 102.840454,125.270103 
	C102.821686,121.318138 104.238991,120.031502 108.089844,120.078178 
	C120.915154,120.233635 133.746811,120.301872 146.568970,120.047333 
	C151.157684,119.956245 152.130569,121.794464 152.107208,125.962730 
	C151.972717,149.950150 152.070374,173.938873 152.116058,198.382233 
M145.145767,153.379807 
	C133.824295,153.377090 122.499992,153.516953 111.182945,153.291733 
	C107.391747,153.216278 106.359955,154.489487 106.404663,158.157089 
	C106.583260,172.806244 106.468307,187.458878 106.501740,202.110123 
	C106.504616,203.370621 106.799583,204.630463 106.957138,205.876938 
	C120.853348,205.876938 134.388916,205.876938 148.254837,205.876938 
	C148.254837,189.005219 148.288895,172.543304 148.161972,156.082626 
	C148.155075,155.186966 146.802933,154.301682 145.145767,153.379807 
M106.416901,138.467072 
	C106.416901,142.068130 106.416901,145.669189 106.416901,149.411255 
	C113.116287,149.411255 119.123596,149.411255 125.212952,149.411255 
	C125.212952,140.825104 125.212952,132.635818 125.212952,124.410324 
	C118.876114,124.410324 112.965675,124.410324 106.417091,124.410324 
	C106.417091,128.946213 106.417091,133.216614 106.416901,138.467072 
M144.264816,149.783096 
	C145.592957,148.991074 148.040955,148.243271 148.074249,147.400116 
	C148.373718,139.814911 148.249237,132.212952 148.249237,124.608826 
	C141.522079,124.608826 135.495041,124.608826 129.568848,124.608826 
	C129.568848,133.152710 129.568848,141.234543 129.568848,149.784393 
	C134.391006,149.784393 138.853729,149.784393 144.264816,149.783096 
z"/>
<path fill="#AE573B" opacity="1.000000" stroke="none" 
	d="
M363.597992,210.160828 
	C362.881104,206.328339 362.619843,202.453888 362.125122,198.226379 
	C361.916840,174.048981 362.048737,150.223831 361.875702,126.400917 
	C361.841827,121.732597 363.038574,119.913567 367.994598,120.033951 
	C380.482758,120.337296 392.985962,120.286179 405.477142,120.053894 
	C409.889496,119.971840 411.202698,121.505409 411.176117,125.838753 
	C411.015686,151.995026 410.986328,178.153641 411.195618,204.309204 
	C411.234253,209.137238 409.386414,210.171036 405.036255,210.113159 
	C391.377838,209.931427 377.714844,210.091293 363.597992,210.160828 
M399.471924,206.289215 
	C402.048645,206.289215 404.625397,206.289215 407.505066,206.289215 
	C407.505066,189.094559 407.547852,172.793701 407.404266,156.494476 
	C407.395142,155.460480 405.949402,153.555542 405.150574,153.544037 
	C392.210754,153.357529 379.267456,153.412079 366.149994,153.412079 
	C366.149994,171.291092 366.149994,188.627853 366.149994,206.289276 
	C377.207947,206.289276 387.844055,206.289276 399.471924,206.289215 
M388.364014,139.439560 
	C388.364014,142.709091 388.364014,145.978622 388.364014,149.421234 
	C395.057251,149.421234 401.062317,149.421234 407.173096,149.421234 
	C407.173096,140.841110 407.173096,132.647263 407.173096,124.407394 
	C400.847900,124.407394 394.936035,124.407394 388.364136,124.407394 
	C388.364136,129.268036 388.364136,133.866867 388.364014,139.439560 
M365.712708,142.414307 
	C365.712708,144.688934 365.712708,146.963577 365.712708,149.351562 
	C372.407288,149.351562 378.434814,149.351562 384.471436,149.351562 
	C384.471436,140.832489 384.471436,132.750427 384.471436,124.575951 
	C378.111755,124.575951 372.088440,124.575951 365.712585,124.575951 
	C365.712585,130.477554 365.712585,135.957825 365.712708,142.414307 
z"/>
<path fill="#AD5437" opacity="1.000000" stroke="none" 
	d="
M300.827179,180.025269 
	C299.831635,180.028534 298.836090,180.031799 297.468597,180.042603 
	C297.071075,161.731674 297.114838,143.412628 296.961243,125.095238 
	C296.930634,121.440758 298.154907,120.065910 301.854065,120.105682 
	C314.842346,120.245338 327.835419,120.299492 340.821533,120.080322 
	C345.353363,120.003830 346.942383,121.513939 346.914978,126.113495 
	C346.772003,150.093033 346.890961,174.074142 346.978607,198.518799 
	C345.897156,198.661575 344.755829,198.340240 343.227539,197.526108 
	C342.840576,182.661865 342.840576,168.290436 342.840576,153.768372 
	C328.511749,153.768372 314.867188,153.768372 300.827179,153.768372 
	C300.827179,162.793015 300.827179,171.409134 300.827179,180.025269 
M334.442749,149.796707 
	C337.046173,149.796707 339.649597,149.796707 342.507568,149.796707 
	C342.507568,141.014374 342.507568,132.837128 342.507568,124.510834 
	C336.150757,124.510834 330.126038,124.510834 324.163605,124.510834 
	C324.163605,133.068375 324.163605,141.248795 324.163605,149.796677 
	C327.556122,149.796677 330.518250,149.796677 334.442749,149.796707 
M316.221497,124.148407 
	C311.285858,124.148407 306.350220,124.148407 301.233948,124.148407 
	C301.233948,132.920181 301.233948,141.114441 301.233948,149.401337 
	C307.601257,149.401337 313.635376,149.401337 319.956665,149.401337 
	C319.956665,141.719833 320.065063,134.419724 319.832397,127.130524 
	C319.799896,126.111298 318.092651,125.145523 316.221497,124.148407 
z"/>
<path fill="#AD5437" opacity="1.000000" stroke="none" 
	d="
M171.097839,197.964478 
	C170.069016,197.990570 169.040192,198.016663 167.628571,198.058929 
	C167.219498,173.918320 167.256454,149.761108 167.106308,125.605072 
	C167.080521,121.458893 168.624222,120.048752 172.690765,120.098717 
	C185.850296,120.260414 199.013962,120.247078 212.173920,120.104935 
	C215.906601,120.064621 217.066025,121.502464 217.038300,125.126534 
	C216.900650,143.118393 216.959457,161.111771 216.926208,179.577362 
	C215.908951,180.044998 214.914581,180.039902 213.513458,179.560577 
	C213.106735,170.679398 213.106735,162.272430 213.106735,153.776825 
	C198.813217,153.776825 185.150787,153.776825 171.097839,153.776825 
	C171.097839,168.784851 171.097839,183.374664 171.097839,197.964478 
M171.165253,128.766647 
	C171.165253,135.658356 171.165253,142.550049 171.165253,149.500153 
	C177.888168,149.500153 183.787994,149.500153 189.941101,149.500153 
	C189.941101,141.019974 189.941101,132.838058 189.941101,124.156151 
	C184.347824,124.156151 179.066193,123.974281 173.819656,124.321823 
	C172.862000,124.385262 172.047302,126.607002 171.165253,128.766647 
M212.772324,149.042267 
	C212.772324,140.838348 212.772324,132.634430 212.772324,124.448708 
	C206.336639,124.448708 200.430954,124.448708 194.373566,124.448708 
	C194.373566,132.947098 194.373566,141.140198 194.373566,149.616776 
	C200.482193,149.616776 206.258759,149.616776 212.772324,149.042267 
z"/>
<path fill="#AE5637" opacity="1.000000" stroke="none" 
	d="
M281.842285,179.596359 
	C280.815491,180.051529 279.816040,180.032242 278.406860,179.544312 
	C277.997131,170.661819 277.997131,162.247955 277.997131,153.734711 
	C263.673584,153.734711 249.989410,153.734711 235.937653,153.734711 
	C235.937653,162.752457 235.937653,171.382843 235.937653,180.013214 
	C234.934937,180.024567 233.932205,180.035934 232.557220,180.059113 
	C232.152008,161.930298 232.200211,143.788849 232.024261,125.649582 
	C231.984451,121.544487 233.452820,120.042770 237.551880,120.093117 
	C250.531815,120.252518 263.516235,120.255707 276.496063,120.092293 
	C280.644592,120.040062 282.010498,121.643402 281.975006,125.697510 
	C281.819244,143.504578 281.884491,161.313599 281.842285,179.596359 
M255.081436,135.517426 
	C255.081436,131.907562 255.081436,128.297699 255.081436,124.478119 
	C248.503235,124.478119 242.472107,124.478119 236.383301,124.478119 
	C236.383301,133.004028 236.383301,141.196945 236.383301,149.356979 
	C242.772125,149.356979 248.792908,149.356979 255.081436,149.356979 
	C255.081436,144.787781 255.081436,140.646011 255.081436,135.517426 
M277.976929,131.601532 
	C277.976929,129.201691 277.976929,126.801834 277.976929,124.454880 
	C271.210846,124.454880 265.300293,124.454880 259.266418,124.454880 
	C259.266418,132.957001 259.266418,141.150177 259.266418,149.388535 
	C265.654327,149.388535 271.688080,149.388535 277.976929,149.388535 
	C277.976929,143.519531 277.976929,138.046646 277.976929,131.601532 
z"/>
<path fill="#B7773D" opacity="1.000000" stroke="none" 
	d="
M215.953125,233.038208 
	C243.003479,233.026047 270.053833,233.013885 297.563477,233.479431 
	C298.022675,236.740982 298.089630,239.526886 298.003326,242.308060 
	C297.919708,245.004349 299.135132,246.265213 301.863159,246.614563 
	C301.927948,297.364441 301.938385,347.663666 301.545715,397.987183 
	C300.099121,399.335083 298.344879,400.565430 298.156647,402.001129 
	C297.733612,405.227325 298.087677,408.555450 298.125427,411.842072 
	C296.995789,411.867859 295.866150,411.893677 294.345123,411.431213 
	C293.972137,387.977325 294.043488,365.011414 293.943390,342.046295 
	C293.930542,339.102020 293.309082,336.080109 292.488556,333.232758 
	C287.398315,315.569489 269.801819,304.544220 251.054703,307.131042 
	C234.689682,309.389221 220.227859,325.055298 220.065521,341.463989 
	C219.833389,364.925507 220.071793,388.391632 220.109253,411.855804 
	C218.979446,411.874359 217.849625,411.892944 216.326996,411.425385 
	C215.952576,407.998932 215.883255,405.054657 216.014374,402.119354 
	C216.142303,399.254730 215.019470,397.778809 212.028381,397.498352 
	C211.994781,354.900818 211.972137,312.767792 211.983047,270.634766 
	C211.985168,262.477753 212.118393,254.320786 212.590057,246.140869 
	C213.983536,244.894608 215.653305,243.763962 215.836517,242.429260 
	C216.258972,239.351562 215.959641,236.174789 215.953125,233.038208 
M261.799286,297.734314 
	C263.676270,297.072449 265.633270,296.577301 267.417206,295.721436 
	C278.514496,290.397552 283.631104,278.039490 279.649323,266.373749 
	C275.868408,255.296463 263.898682,248.126160 252.901184,250.350662 
	C240.697037,252.819229 232.099503,263.838135 233.047363,275.966736 
	C234.045868,288.743103 244.924896,299.891876 261.799286,297.734314 
z"/>
<path fill="#44433F" opacity="1.000000" stroke="none" 
	d="
M289.142731,411.870514 
	C268.032501,411.878967 246.922272,411.887421 225.351990,411.427063 
	C224.902954,388.832153 224.954590,366.705994 224.900970,344.580048 
	C224.884323,337.711151 226.601669,331.418304 230.465912,325.756866 
	C238.340744,314.219604 252.723099,309.107391 266.064240,313.035461 
	C279.456665,316.978607 288.862213,328.949951 288.995697,342.998230 
	C289.213837,365.954041 289.110443,388.912933 289.142731,411.870514 
z"/>
<path fill="#B7783D" opacity="1.000000" stroke="none" 
	d="
M175.200089,246.166656 
	C177.863571,246.268356 179.087784,245.020660 178.997696,242.326294 
	C178.904953,239.552658 178.958801,236.774124 178.929901,233.542831 
	C181.981979,233.057755 185.052689,233.027573 188.569000,233.474182 
	C189.011032,236.593750 189.113983,239.242111 188.975662,241.877808 
	C188.818497,244.872070 189.967484,246.623917 193.040421,247.366974 
	C192.992722,297.879272 192.960098,347.912628 192.525436,397.974640 
	C191.084015,399.331940 189.337036,400.568268 189.149155,402.008087 
	C188.728210,405.233551 189.082886,408.560303 189.121719,411.845795 
	C186.030807,411.887543 182.939896,411.929260 179.436676,411.483582 
	C179.051300,408.041565 178.998688,405.083435 179.127823,402.133240 
	C179.254227,399.245544 178.043091,397.807251 175.088806,397.455444 
	C175.051682,370.191803 175.012650,343.387756 175.034821,316.583740 
	C175.054214,293.111359 175.142334,269.639008 175.200089,246.166656 
z"/>
<path fill="#B7773D" opacity="1.000000" stroke="none" 
	d="
M333.591766,233.018799 
	C334.035553,236.000473 334.107269,238.966156 333.989319,241.924271 
	C333.875153,244.787994 334.985870,246.311722 338.435028,246.609894 
	C338.890411,297.349884 338.890106,347.632996 338.500061,397.946503 
	C337.003387,399.118256 335.170502,400.125885 334.930939,401.426910 
	C334.310364,404.797394 334.391602,408.297119 334.192688,411.745270 
	C331.397217,411.803406 328.601746,411.861572 325.373291,411.431335 
	C324.959198,408.003845 324.889648,405.060760 325.022095,402.126801 
	C325.151031,399.270660 324.037384,397.784332 321.050720,397.482758 
	C320.999786,346.976654 320.971405,296.933350 321.320740,246.813690 
	C322.795929,245.238953 324.566345,243.854782 324.844269,242.217300 
	C325.350433,239.234848 324.971130,236.102081 324.961273,233.032043 
	C327.686432,233.021194 330.411560,233.010361 333.591766,233.018799 
z"/>
<path fill="#D5A260" opacity="1.000000" stroke="none" 
	d="
M289.539429,411.875610 
	C289.110443,388.912933 289.213837,365.954041 288.995697,342.998230 
	C288.862213,328.949951 279.456665,316.978607 266.064240,313.035461 
	C252.723099,309.107391 238.340744,314.219604 230.465912,325.756866 
	C226.601669,331.418304 224.884323,337.711151 224.900970,344.580048 
	C224.954590,366.705994 224.902954,388.832153 224.874573,411.414368 
	C223.536972,411.889160 222.216690,411.907776 220.502838,411.891113 
	C220.071793,388.391632 219.833389,364.925507 220.065521,341.463989 
	C220.227859,325.055298 234.689682,309.389221 251.054703,307.131042 
	C269.801819,304.544220 287.398315,315.569489 292.488556,333.232758 
	C293.309082,336.080109 293.930542,339.102020 293.943390,342.046295 
	C294.043488,365.011414 293.972137,387.977325 293.922180,411.399414 
	C292.572479,411.864136 291.254303,411.872406 289.539429,411.875610 
z"/>
<path fill="#BC8A4E" opacity="1.000000" stroke="none" 
	d="
M425.563629,354.104553 
	C426.015564,356.121338 425.996826,358.109650 425.968689,360.523743 
	C425.638733,362.713135 425.015442,364.481964 425.045837,366.239502 
	C425.278290,379.669617 425.693634,393.096649 425.916992,406.526886 
	C425.968933,409.649445 427.084229,411.101074 430.315216,411.038574 
	C433.289001,410.981049 436.269257,411.259369 439.617645,411.544312 
	C425.553925,411.785767 411.119324,411.916199 396.684509,411.945831 
	C385.064636,411.969696 373.444489,411.871735 361.369324,411.598755 
	C360.914215,411.369720 360.978027,410.993683 361.386719,410.993286 
	C362.887024,410.975403 363.978577,410.957947 365.534363,410.947449 
	C382.297516,410.962402 398.598999,410.813812 414.893921,411.073608 
	C419.794800,411.151703 421.177521,409.404419 421.081329,404.711487 
	C420.825836,392.242981 420.767914,379.759735 421.102295,367.294983 
	C421.242645,362.062073 419.273346,360.829620 414.412018,360.904327 
	C397.950500,361.157349 381.482880,361.013763 365.007019,361.007721 
	C364.996399,360.993683 364.975586,360.966248 364.981628,360.537659 
	C365.010406,358.112610 365.033081,356.116150 365.028687,354.057251 
	C365.001617,353.994812 364.944550,353.871338 364.944550,353.871338 
	C384.994019,353.939575 405.043518,354.007812 425.563629,354.104553 
z"/>
<path fill="#D9A460" opacity="1.000000" stroke="none" 
	d="
M175.113510,397.915009 
	C178.043091,397.807251 179.254227,399.245544 179.127823,402.133240 
	C178.998688,405.083435 179.051300,408.041565 178.975220,411.451294 
	C170.309235,411.877136 161.692383,411.847931 152.630005,411.730042 
	C152.184464,411.641357 152.141083,411.308350 152.082336,410.684021 
	C152.015762,407.765717 152.157166,405.459229 151.966339,403.180634 
	C151.652908,399.437836 153.053284,397.549774 157.437073,397.968658 
	C163.642532,397.956238 169.378021,397.935608 175.113510,397.915009 
z"/>
<path fill="#D9A460" opacity="1.000000" stroke="none" 
	d="
M189.580017,411.882629 
	C189.082886,408.560303 188.728210,405.233551 189.149155,402.008087 
	C189.337036,400.568268 191.084015,399.331940 193.000885,397.989380 
	C199.935913,397.971283 205.993484,397.967072 212.051041,397.962830 
	C215.019470,397.778809 216.142303,399.254730 216.014374,402.119354 
	C215.883255,405.054657 215.952576,407.998932 215.904266,411.390717 
	C207.262344,411.867920 198.650330,411.893677 189.580017,411.882629 
z"/>
<path fill="#D9A460" opacity="1.000000" stroke="none" 
	d="
M321.073273,397.945557 
	C324.037384,397.784332 325.151031,399.270660 325.022095,402.126801 
	C324.889648,405.060760 324.959198,408.003845 324.909241,411.394653 
	C316.265656,411.869995 307.653259,411.893646 298.583130,411.879700 
	C298.087677,408.555450 297.733612,405.227325 298.156647,402.001129 
	C298.344879,400.565430 300.099121,399.335083 302.019104,397.998352 
	C308.954834,397.971985 315.014069,397.958771 321.073273,397.945557 
z"/>
<path fill="#DAA561" opacity="1.000000" stroke="none" 
	d="
M360.978027,410.993683 
	C360.978027,410.993683 360.914215,411.369720 360.894409,411.559265 
	C352.280701,411.787231 343.686859,411.825684 334.642822,411.804718 
	C334.391602,408.297119 334.310364,404.797394 334.930939,401.426910 
	C335.170502,400.125885 337.003387,399.118256 338.978943,397.969604 
	C345.575562,397.961945 351.303497,397.961639 357.430481,397.990601 
	C358.881989,399.367493 360.600494,400.604980 360.845398,402.086121 
	C361.324493,404.983398 360.981018,408.016693 360.978027,410.993683 
z"/>
<path fill="#CE9557" opacity="1.000000" stroke="none" 
	d="
M93.026672,250.506012 
	C111.378960,250.026352 129.723862,250.010956 148.538284,249.993454 
	C149.007797,249.991348 149.000214,249.999588 149.002243,250.465973 
	C148.978058,281.900940 148.951843,312.869537 148.955109,343.908936 
	C148.984558,343.979706 149.051117,344.117859 149.051117,344.117859 
	C130.692123,344.036499 112.333145,343.955139 93.513275,343.811554 
	C93.041367,312.822968 93.030327,281.896637 93.026672,250.506012 
M123.499817,265.976746 
	C117.514854,265.978973 111.527870,266.074371 105.545769,265.944763 
	C102.474594,265.878235 100.970108,266.812653 100.991302,270.172394 
	C101.088852,285.632935 101.085228,301.094727 100.988930,316.555267 
	C100.968788,319.787781 102.219009,320.973236 105.404419,320.945435 
	C116.874702,320.845306 128.346573,320.868469 139.817398,320.929718 
	C142.640900,320.944763 144.110306,320.078064 144.093506,316.942719 
	C144.009811,301.315796 144.014359,285.687988 144.092361,270.061005 
	C144.107330,267.060760 142.933609,265.886383 139.959839,265.954865 
	C134.808975,266.073578 129.653229,265.980774 123.499817,265.976746 
z"/>
<path fill="#BE8950" opacity="1.000000" stroke="none" 
	d="
M93.041679,354.155701 
	C111.398376,354.085083 129.755066,354.014496 148.553558,353.971008 
	C148.995331,353.998169 148.941299,354.123322 148.956482,354.549072 
	C148.989761,356.973846 149.007889,358.972870 149.014435,360.984436 
	C149.002853,360.996918 148.979156,361.022583 148.511841,361.017700 
	C129.708969,361.020660 111.373436,361.028534 93.037895,361.036407 
	C93.037895,361.036407 93.009956,361.013977 93.002975,360.572815 
	C93.011230,358.139679 93.026451,356.147705 93.041679,354.155701 
z"/>
<path fill="#8D3C26" opacity="1.000000" stroke="none" 
	d="
M149.024414,353.936523 
	C149.044998,350.917786 149.036484,347.960632 149.039551,344.560669 
	C149.051117,344.117859 148.984558,343.979706 149.396957,343.952637 
	C151.875198,343.950256 153.941025,343.974976 156.014694,344.453918 
	C156.024063,347.940094 156.025604,350.972107 155.584412,354.004089 
	C153.074890,354.043854 151.008087,354.083588 148.941299,354.123322 
	C148.941299,354.123322 148.995331,353.998169 149.024414,353.936523 
z"/>
<path fill="#B07E4A" opacity="1.000000" stroke="none" 
	d="
M92.628952,354.113800 
	C93.026451,356.147705 93.011230,358.139679 92.989075,360.561584 
	C91.923164,360.992889 90.864182,360.994293 89.408073,360.992004 
	C88.985001,359.002106 88.959053,357.015991 88.918030,354.609436 
	C90.007378,354.149994 91.111801,354.110962 92.628952,354.113800 
z"/>
<path fill="#CE9557" opacity="1.000000" stroke="none" 
	d="
M364.995972,249.995483 
	C383.340332,250.000443 401.688538,250.009537 420.501343,250.030182 
	C420.966156,280.979126 420.966339,311.916473 420.957031,343.301575 
	C402.594818,343.844238 384.242126,343.939148 365.452454,344.006866 
	C365.015503,343.979706 365.074463,343.838135 365.056458,343.382172 
	C365.023407,311.948669 365.008331,280.971161 364.993286,249.993622 
	C364.993286,249.993622 364.999817,249.999603 364.995972,249.995483 
M412.976959,302.499084 
	C412.974884,291.859100 412.921844,281.218750 413.003510,270.579407 
	C413.026337,267.608765 412.318451,265.906464 408.861633,265.942596 
	C397.225494,266.064331 385.586823,266.044220 373.950104,265.953247 
	C370.894012,265.929321 369.895935,267.237610 369.909180,270.150513 
	C369.979492,285.611359 369.996826,301.073090 369.893524,316.533600 
	C369.871979,319.758759 371.073181,320.971100 374.272491,320.943695 
	C385.742828,320.845337 397.215118,320.841553 408.685364,320.945496 
	C411.953094,320.975098 413.116516,319.620667 413.007477,316.464386 
	C412.858307,312.147156 412.974426,307.820740 412.976959,302.499084 
z"/>
<path fill="#8D3C26" opacity="1.000000" stroke="none" 
	d="
M364.982208,344.048767 
	C364.956390,347.075012 364.963867,350.032196 364.957947,353.430359 
	C364.944550,353.871338 365.001617,353.994812 364.584595,354.021851 
	C361.813232,353.990417 359.458893,353.931946 357.071838,353.431763 
	C357.046387,350.032928 357.053711,347.075775 357.502014,344.078430 
	C360.320190,343.971558 362.697327,343.904846 365.074463,343.838135 
	C365.074463,343.838135 365.015503,343.979706 364.982208,344.048767 
z"/>
<path fill="#DAA561" opacity="1.000000" stroke="none" 
	d="
M193.055496,246.888062 
	C189.967484,246.623917 188.818497,244.872070 188.975662,241.877808 
	C189.113983,239.242111 189.011032,236.593750 189.026917,233.491730 
	C197.701416,233.012909 206.363647,232.993317 215.489502,233.005966 
	C215.959641,236.174789 216.258972,239.351562 215.836517,242.429260 
	C215.653305,243.763962 213.983536,244.894608 212.103119,246.096039 
	C205.163330,246.345444 199.109421,246.616745 193.055496,246.888062 
z"/>
<path fill="#DAA561" opacity="1.000000" stroke="none" 
	d="
M324.496704,233.000732 
	C324.971130,236.102081 325.350433,239.234848 324.844269,242.217300 
	C324.566345,243.854782 322.795929,245.238953 320.967560,246.620026 
	C314.094055,246.389786 307.951477,246.276825 301.808868,246.163864 
	C299.135132,246.265213 297.919708,245.004349 298.003326,242.308060 
	C298.089630,239.526886 298.022675,236.740982 298.034790,233.497681 
	C306.708588,233.015289 315.370361,232.992340 324.496704,233.000732 
z"/>
<path fill="#CE9557" opacity="1.000000" stroke="none" 
	d="
M357.061035,344.118622 
	C357.053711,347.075775 357.046387,350.032928 357.053650,353.877350 
	C357.066284,356.826721 357.064331,358.888855 357.049133,361.422516 
	C357.034393,373.916504 357.032928,385.938904 357.031464,397.961334 
	C351.303497,397.961639 345.575562,397.961945 339.368683,397.939148 
	C338.890106,347.632996 338.890411,297.349884 338.844635,246.617111 
	C344.626770,246.295303 350.455017,246.423172 356.635895,246.761108 
	C357.008728,247.716049 357.028870,248.460922 357.037598,250.051880 
	C357.037811,281.971527 357.049408,313.045074 357.061035,344.118622 
z"/>
<path fill="#BF8950" opacity="1.000000" stroke="none" 
	d="
M357.502045,344.078430 
	C357.049408,313.045074 357.037811,281.971527 357.043945,250.424042 
	C359.410950,249.965378 361.760223,249.980682 364.551392,249.994812 
	C365.008331,280.971161 365.023407,311.948669 365.056458,343.382172 
	C362.697327,343.904846 360.320190,343.971558 357.502045,344.078430 
z"/>
<path fill="#CE9557" opacity="1.000000" stroke="none" 
	d="
M156.027130,354.004089 
	C156.025604,350.972107 156.024063,347.940094 156.229370,344.101013 
	C156.623795,341.821198 156.974228,340.348572 156.974854,338.875824 
	C156.987274,309.234253 156.959457,279.592651 156.939743,249.951080 
	C156.954910,249.205933 156.970078,248.460800 156.998428,247.342575 
	C162.749390,246.671417 168.487167,246.373337 174.712524,246.120956 
	C175.142334,269.639008 175.054214,293.111359 175.034821,316.583740 
	C175.012650,343.387756 175.051682,370.191803 175.088806,397.455444 
	C169.378021,397.935608 163.642532,397.956238 157.446625,397.504395 
	C156.970856,385.005493 156.955505,372.979065 156.950012,360.546082 
	C156.648956,358.094391 156.338043,356.049255 156.027130,354.004089 
z"/>
<path fill="#BF8950" opacity="1.000000" stroke="none" 
	d="
M156.501953,249.963776 
	C156.959457,279.592651 156.987274,309.234253 156.974854,338.875824 
	C156.974228,340.348572 156.623795,341.821198 156.221558,343.646790 
	C153.941025,343.974976 151.875198,343.950256 149.367493,343.881836 
	C148.951843,312.869537 148.978058,281.900940 149.005524,250.462982 
	C151.359222,249.987915 153.711700,249.982193 156.501953,249.963776 
z"/>
<path fill="#CE9557" opacity="1.000000" stroke="none" 
	d="
M93.027756,361.501190 
	C111.373436,361.028534 129.708969,361.020660 148.518494,361.483765 
	C148.972076,378.282715 148.951691,394.610718 148.931305,410.938721 
	C132.170334,410.951233 115.407974,410.849487 98.649345,411.053894 
	C94.271088,411.107269 92.867271,409.591888 92.928032,405.278046 
	C93.131348,390.843140 93.012856,376.403687 93.027756,361.501190 
M144.071457,396.254669 
	C144.069809,387.268127 143.985031,378.280426 144.111023,369.295654 
	C144.155914,366.095215 142.992676,364.858795 139.750854,364.891693 
	C128.269226,365.008362 116.784950,365.010590 105.303383,364.891479 
	C102.005959,364.857300 100.943481,366.222382 100.981834,369.358521 
	C101.093765,378.510101 101.082130,387.664490 100.991158,396.816528 
	C100.961426,399.808197 102.180267,400.977020 105.144440,400.957764 
	C116.793144,400.882202 128.442719,400.900299 140.091751,400.943542 
	C142.720947,400.953308 144.249832,400.037628 144.071457,396.254669 
z"/>
<path fill="#BF8950" opacity="1.000000" stroke="none" 
	d="
M149.322510,410.952881 
	C148.951691,394.610718 148.972076,378.282715 148.985809,361.488647 
	C148.979156,361.022583 149.002853,360.996918 149.454102,360.992432 
	C152.250290,360.976166 154.595215,360.964417 156.940155,360.952637 
	C156.955505,372.979065 156.970856,385.005493 156.976654,397.496216 
	C153.053284,397.549774 151.652908,399.437836 151.966339,403.180634 
	C152.157166,405.459229 152.015762,407.765717 152.042496,410.520874 
	C151.278839,410.977081 150.496277,410.972046 149.322510,410.952881 
z"/>
<path fill="#EEECEC" opacity="1.000000" stroke="none" 
	d="
M301.174500,180.247192 
	C300.827179,171.409134 300.827179,162.793015 300.827179,153.768372 
	C314.867188,153.768372 328.511749,153.768372 342.840576,153.768372 
	C342.840576,168.290436 342.840576,182.661865 342.871277,197.499054 
	C331.149170,197.964813 319.396362,197.964813 307.026428,197.964813 
	C307.026428,192.476471 307.026428,186.770645 307.026428,180.945099 
	C304.792267,180.751923 303.157043,180.610535 301.174500,180.247192 
z"/>
<path fill="#EEECEC" opacity="1.000000" stroke="none" 
	d="
M171.541962,198.106506 
	C171.097839,183.374664 171.097839,168.784851 171.097839,153.776825 
	C185.150787,153.776825 198.813217,153.776825 213.106735,153.776825 
	C213.106735,162.272430 213.106735,170.679398 213.139740,179.555908 
	C211.259995,180.369339 209.347214,180.713257 207.018097,181.132034 
	C207.018097,186.722549 207.018097,192.299805 207.018097,198.248520 
	C195.056351,198.248520 183.521225,198.248520 171.541962,198.106506 
z"/>
<path fill="#EDEAE9" opacity="1.000000" stroke="none" 
	d="
M236.288162,180.239487 
	C235.937653,171.382843 235.937653,162.752457 235.937653,153.734711 
	C249.989410,153.734711 263.673584,153.734711 277.997131,153.734711 
	C277.997131,162.247955 277.997131,170.661819 278.029755,179.544434 
	C271.015686,180.216873 263.970062,180.517365 256.921967,180.596466 
	C250.162201,180.672363 243.399872,180.518585 236.288162,180.239487 
z"/>
<path fill="#F0E3DF" opacity="1.000000" stroke="none" 
	d="
M284.210083,193.271744 
	C283.479004,192.035538 282.779724,191.218002 280.951599,189.080734 
	C286.054565,189.678574 289.886597,190.127502 293.718658,190.576447 
	C293.679291,191.013901 293.639893,191.451340 293.600525,191.888794 
	C294.670380,191.089691 295.740265,190.290573 297.697388,188.828751 
	C296.280792,192.856918 295.238708,195.820114 293.793671,199.929092 
	C292.977661,197.397568 292.705475,195.564407 291.816528,194.107559 
	C291.103424,192.938904 289.642242,192.226715 288.513062,191.311951 
	C287.904083,192.488464 287.105042,193.609146 286.738495,194.856857 
	C286.355652,196.159943 286.389130,197.585327 286.240631,198.957260 
	C285.730255,198.967590 285.219849,198.977921 284.709473,198.988266 
	C284.553589,197.222321 284.397705,195.456375 284.210083,193.271744 
z"/>
<path fill="#F7F0EE" opacity="1.000000" stroke="none" 
	d="
M264.426758,197.665298 
	C263.067566,197.556976 261.949249,197.742966 260.080994,198.053680 
	C259.981415,195.981766 259.842041,193.082062 259.629486,188.658813 
	C262.684967,189.831757 265.843353,190.086960 266.786194,191.665497 
	C267.803772,193.369186 266.749054,196.310577 266.578369,199.029419 
	C265.947540,198.676208 265.307617,198.317917 264.426758,197.665298 
z"/>
<path fill="#F7F0EE" opacity="1.000000" stroke="none" 
	d="
M228.273438,195.962372 
	C228.071243,197.193176 227.882050,198.065033 227.692841,198.936874 
	C227.357956,198.912888 227.023056,198.888901 226.688171,198.864929 
	C226.688171,195.966553 226.688171,193.068192 226.688171,189.119354 
	C228.825821,191.004181 230.608948,192.576401 232.453537,194.202820 
	C232.772018,192.636871 233.075409,191.145187 233.378799,189.653488 
	C233.707214,189.672821 234.035629,189.692154 234.364044,189.711487 
	C234.364044,192.709503 234.364044,195.707520 234.364044,199.528870 
	C232.224991,197.753998 230.472946,196.298370 228.708145,194.858383 
	C228.686981,194.841110 228.463913,195.005325 228.402084,195.120712 
	C228.326523,195.261780 228.321793,195.440796 228.273438,195.962372 
z"/>
<path fill="#F0E3DF" opacity="1.000000" stroke="none" 
	d="
M271.898010,195.029572 
	C270.961029,193.516739 270.369110,192.093933 269.777191,190.671143 
	C271.691284,190.264603 273.605347,189.858047 275.519440,189.451492 
	C275.621490,190.012787 275.723541,190.574081 275.825623,191.135376 
	C274.629059,191.335083 273.432495,191.534805 272.364594,191.713058 
	C273.648773,193.337250 275.757477,194.829514 275.994629,196.575928 
	C276.362701,199.286346 272.825226,199.682678 268.622498,196.779877 
	C270.718750,196.779877 272.094635,196.779877 274.254852,196.779877 
	C273.247070,195.948196 272.745056,195.533905 271.898010,195.029572 
z"/>
<path fill="#F0E3DF" opacity="1.000000" stroke="none" 
	d="
M251.056458,190.847015 
	C250.364288,191.192551 249.323654,191.360214 249.040665,191.914612 
	C247.856888,194.233688 246.900436,196.668808 244.482529,199.320862 
	C243.185043,196.267944 241.887558,193.215027 240.590073,190.162094 
	C241.077225,189.891602 241.564392,189.621109 242.051559,189.350616 
	C243.001221,190.824615 243.950897,192.298615 244.938339,193.831268 
	C247.176620,193.790939 246.094467,186.961456 250.756836,190.846085 
	C251.128906,190.606659 251.056442,190.847000 251.056458,190.847015 
z"/>
<path fill="#F7F0EE" opacity="1.000000" stroke="none" 
	d="
M250.997131,191.305511 
	C251.056442,190.847000 251.128906,190.606659 251.093231,190.551804 
	C253.104019,190.113815 255.150497,189.730682 257.196991,189.347549 
	C257.297119,189.792816 257.397247,190.238068 257.497406,190.683319 
	C256.124268,191.093124 254.751160,191.502930 252.588089,192.148499 
	C254.426010,192.894684 255.679993,193.403793 258.041870,194.362717 
	C255.702438,194.940445 254.449417,195.249878 251.720810,195.923706 
	C254.656982,196.797546 256.235168,197.267227 257.813385,197.736923 
	C257.781403,198.016251 257.749420,198.295563 257.717468,198.574890 
	C255.609512,198.574890 253.501556,198.574890 250.937805,198.574890 
	C250.937805,196.308990 250.937805,194.036514 250.997131,191.305511 
z"/>
<path fill="#F7F0EE" opacity="1.000000" stroke="none" 
	d="
M215.941193,193.171417 
	C216.108795,191.732437 216.276581,190.695328 216.444351,189.658218 
	C216.855392,189.640411 217.266418,189.622589 217.677460,189.604782 
	C217.812454,191.221100 217.756226,192.886627 218.154587,194.435196 
	C218.391357,195.355637 219.343689,196.092026 219.974335,196.911163 
	C220.612869,196.097687 221.624924,195.359039 221.806244,194.453979 
	C222.111649,192.929367 221.889923,191.299149 221.889923,189.713364 
	C222.568146,189.723694 223.246384,189.734024 223.924606,189.744354 
	C223.758606,192.198471 223.988342,194.783157 223.241867,197.045761 
	C222.920105,198.021072 219.777756,199.209976 219.301651,198.777435 
	C217.824615,197.435654 217.011887,195.362579 215.941193,193.171417 
z"/>
<path fill="#EEECEC" opacity="1.000000" stroke="none" 
	d="
M145.611374,153.395691 
	C146.802933,154.301682 148.155075,155.186966 148.161972,156.082626 
	C148.288895,172.543304 148.254837,189.005219 148.254837,205.876938 
	C134.388916,205.876938 120.853348,205.876938 106.957138,205.876938 
	C106.799583,204.630463 106.504616,203.370621 106.501740,202.110123 
	C106.468307,187.458878 106.583260,172.806244 106.404663,158.157089 
	C106.359955,154.489487 107.391747,153.216278 111.182945,153.291733 
	C122.499992,153.516953 133.824295,153.377090 145.611374,153.395691 
z"/>
<path fill="#EBE5E4" opacity="1.000000" stroke="none" 
	d="
M106.416992,137.977051 
	C106.417091,133.216614 106.417091,128.946213 106.417091,124.410324 
	C112.965675,124.410324 118.876114,124.410324 125.212952,124.410324 
	C125.212952,132.635818 125.212952,140.825104 125.212952,149.411255 
	C119.123596,149.411255 113.116287,149.411255 106.416901,149.411255 
	C106.416901,145.669189 106.416901,142.068130 106.416992,137.977051 
z"/>
<path fill="#EDE9E8" opacity="1.000000" stroke="none" 
	d="
M143.790619,149.783752 
	C138.853729,149.784393 134.391006,149.784393 129.568848,149.784393 
	C129.568848,141.234543 129.568848,133.152710 129.568848,124.608826 
	C135.495041,124.608826 141.522079,124.608826 148.249237,124.608826 
	C148.249237,132.212952 148.373718,139.814911 148.074249,147.400116 
	C148.040955,148.243271 145.592957,148.991074 143.790619,149.783752 
z"/>
<path fill="#EEECEC" opacity="1.000000" stroke="none" 
	d="
M398.976044,206.289246 
	C387.844055,206.289276 377.207947,206.289276 366.149994,206.289276 
	C366.149994,188.627853 366.149994,171.291092 366.149994,153.412079 
	C379.267456,153.412079 392.210754,153.357529 405.150574,153.544037 
	C405.949402,153.555542 407.395142,155.460480 407.404266,156.494476 
	C407.547852,172.793701 407.505066,189.094559 407.505066,206.289215 
	C404.625397,206.289215 402.048645,206.289215 398.976044,206.289246 
z"/>
<path fill="#EBE5E4" opacity="1.000000" stroke="none" 
	d="
M388.364075,138.952637 
	C388.364136,133.866867 388.364136,129.268036 388.364136,124.407394 
	C394.936035,124.407394 400.847900,124.407394 407.173096,124.407394 
	C407.173096,132.647263 407.173096,140.841110 407.173096,149.421234 
	C401.062317,149.421234 395.057251,149.421234 388.364014,149.421234 
	C388.364014,145.978622 388.364014,142.709091 388.364075,138.952637 
z"/>
<path fill="#EDE9E8" opacity="1.000000" stroke="none" 
	d="
M365.712646,141.926208 
	C365.712585,135.957825 365.712585,130.477554 365.712585,124.575951 
	C372.088440,124.575951 378.111755,124.575951 384.471436,124.575951 
	C384.471436,132.750427 384.471436,140.832489 384.471436,149.351562 
	C378.434814,149.351562 372.407288,149.351562 365.712708,149.351562 
	C365.712708,146.963577 365.712708,144.688934 365.712646,141.926208 
z"/>
<path fill="#EDEAE9" opacity="1.000000" stroke="none" 
	d="
M333.961548,149.796692 
	C330.518250,149.796677 327.556122,149.796677 324.163605,149.796677 
	C324.163605,141.248795 324.163605,133.068375 324.163605,124.510834 
	C330.126038,124.510834 336.150757,124.510834 342.507568,124.510834 
	C342.507568,132.837128 342.507568,141.014374 342.507568,149.796707 
	C339.649597,149.796707 337.046173,149.796707 333.961548,149.796692 
z"/>
<path fill="#EDEBEB" opacity="1.000000" stroke="none" 
	d="
M316.691101,124.151703 
	C318.092651,125.145523 319.799896,126.111298 319.832397,127.130524 
	C320.065063,134.419724 319.956665,141.719833 319.956665,149.401337 
	C313.635376,149.401337 307.601257,149.401337 301.233948,149.401337 
	C301.233948,141.114441 301.233948,132.920181 301.233948,124.148407 
	C306.350220,124.148407 311.285858,124.148407 316.691101,124.151703 
z"/>
<path fill="#EDEAE9" opacity="1.000000" stroke="none" 
	d="
M171.165924,128.299530 
	C172.047302,126.607002 172.862000,124.385262 173.819656,124.321823 
	C179.066193,123.974281 184.347824,124.156151 189.941101,124.156151 
	C189.941101,132.838058 189.941101,141.019974 189.941101,149.500153 
	C183.787994,149.500153 177.888168,149.500153 171.165253,149.500153 
	C171.165253,142.550049 171.165253,135.658356 171.165924,128.299530 
z"/>
<path fill="#EDEBEB" opacity="1.000000" stroke="none" 
	d="
M212.403839,149.329529 
	C206.258759,149.616776 200.482193,149.616776 194.373566,149.616776 
	C194.373566,141.140198 194.373566,132.947098 194.373566,124.448708 
	C200.430954,124.448708 206.336639,124.448708 212.772324,124.448708 
	C212.772324,132.634430 212.772324,140.838348 212.403839,149.329529 
z"/>
<path fill="#EEEBEB" opacity="1.000000" stroke="none" 
	d="
M255.081436,136.010834 
	C255.081436,140.646011 255.081436,144.787781 255.081436,149.356979 
	C248.792908,149.356979 242.772125,149.356979 236.383301,149.356979 
	C236.383301,141.196945 236.383301,133.004028 236.383301,124.478119 
	C242.472107,124.478119 248.503235,124.478119 255.081436,124.478119 
	C255.081436,128.297699 255.081436,131.907562 255.081436,136.010834 
z"/>
<path fill="#EEEBEB" opacity="1.000000" stroke="none" 
	d="
M277.976929,132.087646 
	C277.976929,138.046646 277.976929,143.519531 277.976929,149.388535 
	C271.688080,149.388535 265.654327,149.388535 259.266418,149.388535 
	C259.266418,141.150177 259.266418,132.957001 259.266418,124.454880 
	C265.300293,124.454880 271.210846,124.454880 277.976929,124.454880 
	C277.976929,126.801834 277.976929,129.201691 277.976929,132.087646 
z"/>
<path fill="#CE9456" opacity="1.000000" stroke="none" 
	d="
M301.863159,246.614563 
	C307.951477,246.276825 314.094055,246.389786 320.589844,246.696381 
	C320.971405,296.933350 320.999786,346.976654 321.050720,397.482758 
	C315.014069,397.958771 308.954834,397.971985 302.422241,397.974030 
	C301.938385,347.663666 301.927948,297.364441 301.863159,246.614563 
z"/>
<path fill="#CE9456" opacity="1.000000" stroke="none" 
	d="
M193.040421,247.366974 
	C199.109421,246.616745 205.163330,246.345444 211.704193,246.118973 
	C212.118393,254.320786 211.985168,262.477753 211.983047,270.634766 
	C211.972137,312.767792 211.994781,354.900818 212.028381,397.498352 
	C205.993484,397.967072 199.935913,397.971283 193.402924,397.960754 
	C192.960098,347.912628 192.992722,297.879272 193.040421,247.366974 
z"/>
<path fill="#D6A25F" opacity="1.000000" stroke="none" 
	d="
M261.374084,297.804810 
	C244.924896,299.891876 234.045868,288.743103 233.047363,275.966736 
	C232.099503,263.838135 240.697037,252.819229 252.901184,250.350662 
	C263.898682,248.126160 275.868408,255.296463 279.649323,266.373749 
	C283.631104,278.039490 278.514496,290.397552 267.417206,295.721436 
	C265.633270,296.577301 263.676270,297.072449 261.374084,297.804810 
M239.523376,281.677979 
	C244.377884,290.694611 252.400436,294.752136 261.305695,292.694641 
	C269.250458,290.859131 275.397125,283.742279 275.966278,275.720123 
	C276.522217,267.884399 272.573273,260.639923 265.678253,257.218719 
	C258.408203,253.611465 251.312866,254.263855 245.097366,259.367767 
	C238.197205,265.033936 236.399277,272.458649 239.523376,281.677979 
z"/>
<path fill="#CE9557" opacity="1.000000" stroke="none" 
	d="
M365.017609,361.021759 
	C381.482880,361.013763 397.950500,361.157349 414.412018,360.904327 
	C419.273346,360.829620 421.242645,362.062073 421.102295,367.294983 
	C420.767914,379.759735 420.825836,392.242981 421.081329,404.711487 
	C421.177521,409.404419 419.794800,411.151703 414.893921,411.073608 
	C398.598999,410.813812 382.297516,410.962402 365.513123,410.485474 
	C365.024353,393.684967 365.020966,377.353363 365.017609,361.021759 
M408.239990,400.935760 
	C411.545319,401.252380 413.099915,400.018585 413.034729,396.433746 
	C412.871307,387.450989 412.875854,378.461456 413.032928,369.478485 
	C413.094238,365.971680 411.712860,364.840515 408.317535,364.881653 
	C397.170227,365.016663 386.018768,365.031769 374.872070,364.873016 
	C371.300446,364.822174 369.776581,365.871124 369.864136,369.671661 
	C370.067169,378.486298 370.064514,387.311890 369.864502,396.126709 
	C369.779053,399.892548 371.251190,401.040131 374.846313,400.990479 
	C385.660400,400.841125 396.477905,400.938141 408.239990,400.935760 
z"/>
<path fill="#BF8950" opacity="1.000000" stroke="none" 
	d="
M365.007019,361.007721 
	C365.020966,377.353363 365.024353,393.684967 365.048950,410.478516 
	C363.978577,410.957947 362.887024,410.975403 361.386749,410.993286 
	C360.981018,408.016693 361.324493,404.983398 360.845398,402.086121 
	C360.600494,400.604980 358.881989,399.367493 357.430481,397.990601 
	C357.032928,385.938904 357.034393,373.916504 357.485657,361.435730 
	C360.282135,360.973633 362.628876,360.969940 364.975586,360.966248 
	C364.975586,360.966248 364.996399,360.993683 365.007019,361.007721 
z"/>
<path fill="#B07E4A" opacity="1.000000" stroke="none" 
	d="
M364.981628,360.537659 
	C362.628876,360.969940 360.282135,360.973633 357.498901,360.964172 
	C357.064331,358.888855 357.066284,356.826721 357.086426,354.319031 
	C359.458893,353.931946 361.813232,353.990417 364.611633,354.084259 
	C365.033081,356.116150 365.010406,358.112610 364.981628,360.537659 
z"/>
<path fill="#A04F37" opacity="1.000000" stroke="none" 
	d="
M123.999672,265.976715 
	C129.653229,265.980774 134.808975,266.073578 139.959839,265.954865 
	C142.933609,265.886383 144.107330,267.060760 144.092361,270.061005 
	C144.014359,285.687988 144.009811,301.315796 144.093506,316.942719 
	C144.110306,320.078064 142.640900,320.944763 139.817398,320.929718 
	C128.346573,320.868469 116.874702,320.845306 105.404419,320.945435 
	C102.219009,320.973236 100.968788,319.787781 100.988930,316.555267 
	C101.085228,301.094727 101.088852,285.632935 100.991302,270.172394 
	C100.970108,266.812653 102.474594,265.878235 105.545769,265.944763 
	C111.527870,266.074371 117.514854,265.978973 123.999672,265.976715 
M124.033829,294.499969 
	C124.033829,302.251404 124.033829,310.002838 124.033829,317.679230 
	C130.107330,317.679230 135.388992,317.679230 140.886368,317.679230 
	C140.886368,301.393890 140.886368,285.354980 140.886368,269.251892 
	C135.149719,269.251892 129.756577,269.251892 124.033829,269.251892 
	C124.033829,277.553009 124.033829,285.526520 124.033829,294.499969 
M103.993652,303.495117 
	C103.993652,308.230927 103.993652,312.966766 103.993652,317.559540 
	C110.150497,317.559540 115.543381,317.559540 120.750389,317.559540 
	C120.750389,306.658356 120.750389,296.131378 120.750389,285.673157 
	C114.958931,285.673157 109.593361,285.673157 103.993652,285.673157 
	C103.993652,291.553711 103.993652,297.025665 103.993652,303.495117 
M108.743103,282.650299 
	C112.695877,282.650299 116.648643,282.650299 120.885651,282.650299 
	C120.885651,277.889587 120.885651,273.667786 120.885651,269.325409 
	C115.159424,269.325409 109.653542,269.325409 103.986504,269.325409 
	C103.986504,272.899994 104.168625,276.067505 103.934990,279.204010 
	C103.703995,282.305145 105.251053,282.931458 108.743103,282.650299 
z"/>
<path fill="#B07E4A" opacity="1.000000" stroke="none" 
	d="
M156.950012,360.546082 
	C154.595215,360.964417 152.250290,360.976166 149.465683,360.979919 
	C149.007889,358.972870 148.989761,356.973846 148.956482,354.549072 
	C151.008087,354.083588 153.074890,354.043854 155.584412,354.004089 
	C156.338043,356.049255 156.648956,358.094391 156.950012,360.546082 
z"/>
<path fill="#A04F37" opacity="1.000000" stroke="none" 
	d="
M412.976898,302.998657 
	C412.974426,307.820740 412.858307,312.147156 413.007477,316.464386 
	C413.116516,319.620667 411.953094,320.975098 408.685364,320.945496 
	C397.215118,320.841553 385.742828,320.845337 374.272491,320.943695 
	C371.073181,320.971100 369.871979,319.758759 369.893524,316.533600 
	C369.996826,301.073090 369.979492,285.611359 369.909180,270.150513 
	C369.895935,267.237610 370.894012,265.929321 373.950104,265.953247 
	C385.586823,266.044220 397.225494,266.064331 408.861633,265.942596 
	C412.318451,265.906464 413.026337,267.608765 413.003510,270.579407 
	C412.921844,281.218750 412.974884,291.859100 412.976898,302.998657 
M410.001007,297.499817 
	C410.001007,288.069672 410.001007,278.639526 410.001007,269.289062 
	C403.916473,269.289062 398.514709,269.289062 393.108185,269.289062 
	C393.108185,285.583496 393.108185,301.507660 393.108185,317.648865 
	C398.775909,317.648865 404.171906,317.648865 410.001007,317.648865 
	C410.001007,311.086456 410.001007,304.792969 410.001007,297.499817 
M389.971130,293.579590 
	C389.971130,290.972534 389.971130,288.365448 389.971130,285.572601 
	C384.036896,285.572601 378.650940,285.572601 373.078003,285.572601 
	C373.078003,296.419312 373.078003,306.952728 373.078003,317.651306 
	C378.778259,317.651306 384.164551,317.651306 389.971130,317.651306 
	C389.971130,309.772247 389.971130,302.166718 389.971130,293.579590 
M387.111359,282.643036 
	C388.063263,281.846863 389.761047,281.115356 389.836700,280.243195 
	C390.148163,276.650818 389.967041,273.015717 389.967041,269.158447 
	C384.103729,269.158447 378.709686,269.158447 373.043152,269.158447 
	C373.043152,273.636597 373.043152,277.859894 373.043152,282.649017 
	C377.609314,282.649017 381.895081,282.649017 387.111359,282.643036 
z"/>
<path fill="#A15139" opacity="1.000000" stroke="none" 
	d="
M144.065277,396.720215 
	C144.249832,400.037628 142.720947,400.953308 140.091751,400.943542 
	C128.442719,400.900299 116.793144,400.882202 105.144440,400.957764 
	C102.180267,400.977020 100.961426,399.808197 100.991158,396.816528 
	C101.082130,387.664490 101.093765,378.510101 100.981834,369.358521 
	C100.943481,366.222382 102.005959,364.857300 105.303383,364.891479 
	C116.784950,365.010590 128.269226,365.008362 139.750854,364.891693 
	C142.992676,364.858795 144.155914,366.095215 144.111023,369.295654 
	C143.985031,378.280426 144.069809,387.268127 144.065277,396.720215 
M124.781799,368.025024 
	C124.781799,377.860687 124.781799,387.696381 124.781799,397.653931 
	C129.993866,397.653931 135.385986,397.653931 140.892380,397.653931 
	C140.892380,387.659729 140.892380,377.955078 140.892380,367.844116 
	C135.626740,367.844116 130.677734,367.844116 124.781799,368.025024 
M103.999779,390.540924 
	C103.999779,392.939423 103.999779,395.337952 103.999779,397.591858 
	C110.150597,397.591858 115.530891,397.591858 120.829613,397.591858 
	C120.829613,393.007050 120.829613,388.781433 120.829613,384.435394 
	C115.131744,384.435394 109.768768,384.435394 103.999794,384.435394 
	C103.999794,386.356354 103.999794,387.978119 103.999779,390.540924 
M112.505432,367.794830 
	C109.759956,367.794830 107.014481,367.794830 104.270134,367.794830 
	C104.270134,372.659851 104.270134,376.747711 104.270134,381.034119 
	C109.910362,381.034119 115.283508,381.034119 120.777390,381.034119 
	C120.777390,376.511627 120.777390,372.313995 120.777390,367.794830 
	C118.096222,367.794830 115.789787,367.794830 112.505432,367.794830 
z"/>
<path fill="#46443F" opacity="1.000000" stroke="none" 
	d="
M239.364380,281.318237 
	C236.399277,272.458649 238.197205,265.033936 245.097366,259.367767 
	C251.312866,254.263855 258.408203,253.611465 265.678253,257.218719 
	C272.573273,260.639923 276.522217,267.884399 275.966278,275.720123 
	C275.397125,283.742279 269.250458,290.859131 261.305695,292.694641 
	C252.400436,294.752136 244.377884,290.694611 239.364380,281.318237 
z"/>
<path fill="#A15139" opacity="1.000000" stroke="none" 
	d="
M407.767029,400.937408 
	C396.477905,400.938141 385.660400,400.841125 374.846313,400.990479 
	C371.251190,401.040131 369.779053,399.892548 369.864502,396.126709 
	C370.064514,387.311890 370.067169,378.486298 369.864136,369.671661 
	C369.776581,365.871124 371.300446,364.822174 374.872070,364.873016 
	C386.018768,365.031769 397.170227,365.016663 408.317535,364.881653 
	C411.712860,364.840515 413.094238,365.971680 413.032928,369.478485 
	C412.875854,378.461456 412.871307,387.450989 413.034729,396.433746 
	C413.099915,400.018585 411.545319,401.252380 407.767029,400.937408 
M409.994049,394.282471 
	C409.994049,385.542023 409.994049,376.801575 409.994049,368.194336 
	C403.895905,368.194336 398.510773,368.194336 393.238281,368.194336 
	C393.238281,378.292450 393.238281,387.986450 393.238281,397.937897 
	C398.095978,397.937897 402.574066,398.103790 407.022614,397.814850 
	C408.063110,397.747284 409.003540,396.138275 409.994049,394.282471 
M389.965271,388.654846 
	C389.860291,387.235046 389.755341,385.815216 389.657349,384.489990 
	C383.850830,384.489990 378.473297,384.489990 373.089783,384.489990 
	C373.089783,389.078186 373.089783,393.304779 373.089783,397.684326 
	C378.780273,397.684326 384.154358,397.684326 389.965424,397.684326 
	C389.965424,394.820251 389.965424,392.211304 389.965271,388.654846 
M380.506287,381.351929 
	C383.577820,381.351929 386.649384,381.351929 389.686584,381.351929 
	C389.686584,376.419067 389.686584,372.331970 389.686584,368.109192 
	C384.025818,368.109192 378.641724,368.109192 373.184540,368.109192 
	C373.184540,372.632233 373.184540,376.834167 373.184540,381.351990 
	C375.564331,381.351990 377.543915,381.351990 380.506287,381.351929 
z"/>
<path fill="#EFEFEF" opacity="1.000000" stroke="none" 
	d="
M124.033829,294.000000 
	C124.033829,285.526520 124.033829,277.553009 124.033829,269.251892 
	C129.756577,269.251892 135.149719,269.251892 140.886368,269.251892 
	C140.886368,285.354980 140.886368,301.393890 140.886368,317.679230 
	C135.388992,317.679230 130.107330,317.679230 124.033829,317.679230 
	C124.033829,310.002838 124.033829,302.251404 124.033829,294.000000 
z"/>
<path fill="#EEEDED" opacity="1.000000" stroke="none" 
	d="
M103.993652,302.996368 
	C103.993652,297.025665 103.993652,291.553711 103.993652,285.673157 
	C109.593361,285.673157 114.958931,285.673157 120.750389,285.673157 
	C120.750389,296.131378 120.750389,306.658356 120.750389,317.559540 
	C115.543381,317.559540 110.150497,317.559540 103.993652,317.559540 
	C103.993652,312.966766 103.993652,308.230927 103.993652,302.996368 
z"/>
<path fill="#EDEAEA" opacity="1.000000" stroke="none" 
	d="
M108.277603,282.649658 
	C105.251053,282.931458 103.703995,282.305145 103.934990,279.204010 
	C104.168625,276.067505 103.986504,272.899994 103.986504,269.325409 
	C109.653542,269.325409 115.159424,269.325409 120.885651,269.325409 
	C120.885651,273.667786 120.885651,277.889587 120.885651,282.650299 
	C116.648643,282.650299 112.695877,282.650299 108.277603,282.649658 
z"/>
<path fill="#EFEFEF" opacity="1.000000" stroke="none" 
	d="
M410.001007,297.999664 
	C410.001007,304.792969 410.001007,311.086456 410.001007,317.648865 
	C404.171906,317.648865 398.775909,317.648865 393.108185,317.648865 
	C393.108185,301.507660 393.108185,285.583496 393.108185,269.289062 
	C398.514709,269.289062 403.916473,269.289062 410.001007,269.289062 
	C410.001007,278.639526 410.001007,288.069672 410.001007,297.999664 
z"/>
<path fill="#EEEDED" opacity="1.000000" stroke="none" 
	d="
M389.971130,294.070374 
	C389.971130,302.166718 389.971130,309.772247 389.971130,317.651306 
	C384.164551,317.651306 378.778259,317.651306 373.078003,317.651306 
	C373.078003,306.952728 373.078003,296.419312 373.078003,285.572601 
	C378.650940,285.572601 384.036896,285.572601 389.971130,285.572601 
	C389.971130,288.365448 389.971130,290.972534 389.971130,294.070374 
z"/>
<path fill="#EDEAEA" opacity="1.000000" stroke="none" 
	d="
M386.646118,282.646027 
	C381.895081,282.649017 377.609314,282.649017 373.043152,282.649017 
	C373.043152,277.859894 373.043152,273.636597 373.043152,269.158447 
	C378.709686,269.158447 384.103729,269.158447 389.967041,269.158447 
	C389.967041,273.015717 390.148163,276.650818 389.836700,280.243195 
	C389.761047,281.115356 388.063263,281.846863 386.646118,282.646027 
z"/>
<path fill="#EFEFEF" opacity="1.000000" stroke="none" 
	d="
M125.255264,367.934570 
	C130.677734,367.844116 135.626740,367.844116 140.892380,367.844116 
	C140.892380,377.955078 140.892380,387.659729 140.892380,397.653931 
	C135.385986,397.653931 129.993866,397.653931 124.781799,397.653931 
	C124.781799,387.696381 124.781799,377.860687 125.255264,367.934570 
z"/>
<path fill="#EEEDED" opacity="1.000000" stroke="none" 
	d="
M103.999786,390.070435 
	C103.999794,387.978119 103.999794,386.356354 103.999794,384.435394 
	C109.768768,384.435394 115.131744,384.435394 120.829613,384.435394 
	C120.829613,388.781433 120.829613,393.007050 120.829613,397.591858 
	C115.530891,397.591858 110.150597,397.591858 103.999779,397.591858 
	C103.999779,395.337952 103.999779,392.939423 103.999786,390.070435 
z"/>
<path fill="#EFEFEF" opacity="1.000000" stroke="none" 
	d="
M112.994392,367.794830 
	C115.789787,367.794830 118.096222,367.794830 120.777390,367.794830 
	C120.777390,372.313995 120.777390,376.511627 120.777390,381.034119 
	C115.283508,381.034119 109.910362,381.034119 104.270134,381.034119 
	C104.270134,376.747711 104.270134,372.659851 104.270134,367.794830 
	C107.014481,367.794830 109.759956,367.794830 112.994392,367.794830 
z"/>
<path fill="#EFEFEF" opacity="1.000000" stroke="none" 
	d="
M409.992004,394.760468 
	C409.003540,396.138275 408.063110,397.747284 407.022614,397.814850 
	C402.574066,398.103790 398.095978,397.937897 393.238281,397.937897 
	C393.238281,387.986450 393.238281,378.292450 393.238281,368.194336 
	C398.510773,368.194336 403.895905,368.194336 409.994049,368.194336 
	C409.994049,376.801575 409.994049,385.542023 409.992004,394.760468 
z"/>
<path fill="#EEEDED" opacity="1.000000" stroke="none" 
	d="
M389.965332,389.128601 
	C389.965424,392.211304 389.965424,394.820251 389.965424,397.684326 
	C384.154358,397.684326 378.780273,397.684326 373.089783,397.684326 
	C373.089783,393.304779 373.089783,389.078186 373.089783,384.489990 
	C378.473297,384.489990 383.850830,384.489990 389.657349,384.489990 
	C389.755341,385.815216 389.860291,387.235046 389.965332,389.128601 
z"/>
<path fill="#EFEFEF" opacity="1.000000" stroke="none" 
	d="
M380.014893,381.351959 
	C377.543915,381.351990 375.564331,381.351990 373.184540,381.351990 
	C373.184540,376.834167 373.184540,372.632233 373.184540,368.109192 
	C378.641724,368.109192 384.025818,368.109192 389.686584,368.109192 
	C389.686584,372.331970 389.686584,376.419067 389.686584,381.351929 
	C386.649384,381.351929 383.577820,381.351929 380.014893,381.351959 
z"/>
</svg>